
<svg
   version="1.1"
   id="svg2"
   width="793.70135"
   height="340.936"
   viewBox="0 0 793.70135 340.936"
   sodipodi:docname="Logo Paulo Afonso Oficial.ai"
   xmlns:inkscape="http://www.inkscape.org/namespaces/inkscape"
   xmlns:sodipodi="http://sodipodi.sourceforge.net/DTD/sodipodi-0.dtd"
   xmlns="http://www.w3.org/2000/svg"
   xmlns:svg="http://www.w3.org/2000/svg">
  <defs
     id="defs6">
    <linearGradient
       x1="0"
       y1="0"
       x2="1"
       y2="0"
       gradientUnits="userSpaceOnUse"
       gradientTransform="matrix(55.961899,0,0,-55.961899,192.71419,82.646614)"
       spreadMethod="pad"
       id="linearGradient28">
      <stop
         style="stop-opacity:1;stop-color:#00a8e2"
         offset="0"
         id="stop22" />
      <stop
         style="stop-opacity:1;stop-color:#00a8e2"
         offset="0.07054559"
         id="stop24" />
      <stop
         style="stop-opacity:1;stop-color:#315faa"
         offset="1"
         id="stop26" />
    </linearGradient>
    <linearGradient
       x1="0"
       y1="0"
       x2="1"
       y2="0"
       gradientUnits="userSpaceOnUse"
       gradientTransform="matrix(80.925873,0,0,-80.925873,253.99573,82.646889)"
       spreadMethod="pad"
       id="linearGradient50">
      <stop
         style="stop-opacity:1;stop-color:#00a8e2"
         offset="0"
         id="stop44" />
      <stop
         style="stop-opacity:1;stop-color:#00a8e2"
         offset="0.07054559"
         id="stop46" />
      <stop
         style="stop-opacity:1;stop-color:#315faa"
         offset="1"
         id="stop48" />
    </linearGradient>
    <linearGradient
       x1="0"
       y1="0"
       x2="1"
       y2="0"
       gradientUnits="userSpaceOnUse"
       gradientTransform="matrix(72.762299,0,0,-72.762299,346.74734,82.646614)"
       spreadMethod="pad"
       id="linearGradient72">
      <stop
         style="stop-opacity:1;stop-color:#00a8e2"
         offset="0"
         id="stop66" />
      <stop
         style="stop-opacity:1;stop-color:#00a8e2"
         offset="0.07054559"
         id="stop68" />
      <stop
         style="stop-opacity:1;stop-color:#315faa"
         offset="1"
         id="stop70" />
    </linearGradient>
    <linearGradient
       x1="0"
       y1="0"
       x2="1"
       y2="0"
       gradientUnits="userSpaceOnUse"
       gradientTransform="matrix(69.922798,0,0,-69.922798,426.60397,82.579712)"
       spreadMethod="pad"
       id="linearGradient94">
      <stop
         style="stop-opacity:1;stop-color:#00a8e2"
         offset="0"
         id="stop88" />
      <stop
         style="stop-opacity:1;stop-color:#00a8e2"
         offset="0.07054559"
         id="stop90" />
      <stop
         style="stop-opacity:1;stop-color:#315faa"
         offset="1"
         id="stop92" />
    </linearGradient>
    <linearGradient
       x1="0"
       y1="0"
       x2="1"
       y2="0"
       gradientUnits="userSpaceOnUse"
       gradientTransform="matrix(61.640907,0,0,-61.640907,501.84753,82.04454)"
       spreadMethod="pad"
       id="linearGradient116">
      <stop
         style="stop-opacity:1;stop-color:#00a8e2"
         offset="0"
         id="stop110" />
      <stop
         style="stop-opacity:1;stop-color:#00a8e2"
         offset="0.07054559"
         id="stop112" />
      <stop
         style="stop-opacity:1;stop-color:#315faa"
         offset="1"
         id="stop114" />
    </linearGradient>
    <clipPath
       clipPathUnits="userSpaceOnUse"
       id="clipPath126">
      <path
         d="M 0,255.702 H 595.276 V 0 H 0 Z"
         id="path124" />
    </clipPath>
    <linearGradient
       x1="0"
       y1="0"
       x2="1"
       y2="0"
       gradientUnits="userSpaceOnUse"
       gradientTransform="matrix(150.62305,0,0,-150.62305,32.084705,127.92419)"
       spreadMethod="pad"
       id="linearGradient198">
      <stop
         style="stop-opacity:1;stop-color:#00a8e2"
         offset="0"
         id="stop192" />
      <stop
         style="stop-opacity:1;stop-color:#00a8e2"
         offset="0.07054559"
         id="stop194" />
      <stop
         style="stop-opacity:1;stop-color:#315faa"
         offset="1"
         id="stop196" />
    </linearGradient>
    <clipPath
       clipPathUnits="userSpaceOnUse"
       id="clipPath208">
      <path
         d="M 0,255.702 H 595.276 V 0 H 0 Z"
         id="path206" />
    </clipPath>
    <clipPath
       clipPathUnits="userSpaceOnUse"
       id="clipPath228">
      <path
         d="M 85.0654,105.949 H 162.157 V 81.104 H 85.0654 Z"
         id="path226" />
    </clipPath>
    <clipPath
       clipPathUnits="userSpaceOnUse"
       id="clipPath232">
      <path
         d="M 85.0654,105.954 H 162.217 V 80.4502 H 85.0654 Z"
         id="path230" />
    </clipPath>
    <mask
       maskUnits="userSpaceOnUse"
       x="0"
       y="0"
       width="1"
       height="1"
       id="mask234">
      <g
         id="g260">
        <g
           clip-path="url(#clipPath228)"
           id="g258">
          <path
             d="m 85.065,105.954 h 77.151 V 80.45 H 85.065 Z"
             style="fill:#000000;fill-opacity:1;fill-rule:nonzero;stroke:none"
             id="path236" />
          <g
             id="g256">
            <g
               id="g238" />
            <g
               id="g254">
              <g
                 clip-path="url(#clipPath232)"
                 id="g252">
                <g
                   transform="translate(159.4316,88.8086)"
                   id="g242">
                  <path
                     d="m 0,0 c -3.02,-0.218 -5.725,-1.587 -8.568,-2.421 -13.119,-3.847 -26.46,-5.937 -40.14,-5.1 -8.441,0.515 -16.598,2.551 -24.474,5.652 -0.498,0.196 -0.947,0.447 -1.184,0.961 9.082,4.072 18.409,7.489 27.933,10.381 0.642,0.194 1.271,0.432 1.907,0.65 1.772,0.42 3.576,0.726 5.251,1.485 6.587,1.377 13.114,3.035 19.8,3.942 6.838,0.929 13.688,1.559 20.594,1.59 1.39,0.006 1.666,-0.319 1.596,-1.778 C 2.462,10.112 1.819,4.961 0,0"
                     style="fill:#ffffff;fill-opacity:1;fill-rule:nonzero;stroke:none"
                     id="path240" />
                </g>
                <g
                   transform="translate(103.1089,46.8154)"
                   id="g246">
                  <path
                     d="m 0,0 c -13.786,0 -26.4,4.663 -37.494,13.86 -11.601,9.618 -18.62,22.452 -20.861,38.145 -0.175,1.222 -0.25,2.066 0.263,2.656 0.427,0.493 1.072,0.56 1.648,0.56 0.298,0 0.657,-0.021 1.086,-0.051 9.17,-0.649 17.327,-4.505 25.215,-8.233 l 1.495,-0.706 c 1.689,-0.795 3.391,-1.562 5.093,-2.33 1.16,-0.521 2.321,-1.044 3.476,-1.575 0.604,-0.279 1.11,-0.464 1.617,-0.464 0.098,0 0.198,0.006 0.3,0.023 l 0.599,0.088 0.253,-0.551 c 0.103,-0.225 0.306,-0.373 0.747,-0.547 8.214,-3.234 16.365,-5.117 24.227,-5.598 1.968,-0.121 3.977,-0.181 5.971,-0.181 10.757,0 21.844,1.717 33.892,5.25 0.875,0.258 1.765,0.576 2.624,0.883 1.936,0.694 3.938,1.412 6.114,1.569 l 1.125,0.08 -0.286,-1.09 C 55.201,34.53 51.608,27.83 46.124,21.304 36.292,9.604 23.732,2.643 8.791,0.608 5.825,0.204 2.868,0 0,0"
                     style="fill:#ffffff;fill-opacity:1;fill-rule:nonzero;stroke:none"
                     id="path244" />
                </g>
                <g
                   transform="translate(46.6636,102.8428)"
                   id="g250">
                  <path
                     d="m 0,0 c -0.458,0 -1.53,0 -2.257,-0.838 -0.792,-0.913 -0.611,-2.181 -0.451,-3.298 2.271,-15.899 9.385,-28.904 21.145,-38.653 11.242,-9.32 24.029,-14.046 38.008,-14.046 2.904,0 5.898,0.208 8.899,0.616 15.146,2.062 27.878,9.118 37.843,20.976 5.564,6.62 9.209,13.424 11.142,20.8 l 0.572,2.18 -2.249,-0.162 c -2.285,-0.165 -4.339,-0.9 -6.325,-1.612 -0.889,-0.318 -1.727,-0.619 -2.581,-0.869 -11.975,-3.512 -22.987,-5.219 -33.664,-5.219 -1.978,0 -3.972,0.061 -5.924,0.18 -7.779,0.476 -15.847,2.341 -23.98,5.544 -0.256,0.1 -0.321,0.154 -0.331,0.165 l -0.506,1.097 -1.175,-0.207 c -0.062,-0.008 -0.122,-0.012 -0.181,-0.012 -0.36,0 -0.773,0.155 -1.281,0.389 -1.164,0.535 -2.331,1.062 -3.499,1.587 -1.666,0.751 -3.389,1.528 -5.064,2.316 l -1.497,0.707 C 18.689,-4.6 10.464,-0.712 1.144,-0.053 0.696,-0.021 0.33,0 0,0 m 0,-1.614 c 0.283,0 0.623,-0.02 1.03,-0.049 9.584,-0.678 17.962,-4.879 26.423,-8.863 2.842,-1.338 5.722,-2.596 8.576,-3.91 0.635,-0.291 1.267,-0.537 1.956,-0.537 0.137,0 0.275,0.01 0.417,0.031 0.237,-0.514 0.686,-0.765 1.184,-0.961 7.876,-3.101 16.033,-5.137 24.474,-5.653 2.014,-0.123 4.022,-0.183 6.022,-0.183 11.583,0 22.93,2.003 34.118,5.284 2.843,0.834 5.548,2.203 8.568,2.421 -1.989,-7.586 -5.815,-14.22 -10.817,-20.171 -9.645,-11.477 -22.004,-18.398 -36.825,-20.415 -2.943,-0.401 -5.839,-0.601 -8.681,-0.601 -13.601,0 -26.008,4.58 -36.978,13.674 C 7.65,-31.75 1.046,-19.012 -1.111,-3.908 -1.379,-2.028 -1.287,-1.614 0,-1.614"
                     style="fill:#1b1514;fill-opacity:1;fill-rule:nonzero;stroke:none"
                     id="path248" />
                </g>
              </g>
            </g>
          </g>
        </g>
      </g>
    </mask>
    <clipPath
       clipPathUnits="userSpaceOnUse"
       id="clipPath268">
      <path
         d="M 85.0654,105.949 H 162.157 V 81.104 H 85.0654 Z"
         id="path266" />
    </clipPath>
    <clipPath
       clipPathUnits="userSpaceOnUse"
       id="clipPath332">
      <path
         d="M 86.5139,214.85 H 155.248 V 98.932 H 86.5139 Z"
         id="path330" />
    </clipPath>
    <clipPath
       clipPathUnits="userSpaceOnUse"
       id="clipPath336">
      <path
         d="M 86.4087,215.154 H 155.4 V 98.9316 H 86.4087 Z"
         id="path334" />
    </clipPath>
    <mask
       maskUnits="userSpaceOnUse"
       x="0"
       y="0"
       width="1"
       height="1"
       id="mask338">
      <g
         id="g380">
        <g
           clip-path="url(#clipPath332)"
           id="g378">
          <path
             d="M 86.409,215.154 H 155.4 V 98.932 H 86.409 Z"
             style="fill:#000000;fill-opacity:1;fill-rule:nonzero;stroke:none"
             id="path340" />
          <g
             id="g376">
            <g
               id="g342" />
            <g
               id="g374">
              <g
                 clip-path="url(#clipPath336)"
                 id="g372">
                <g
                   transform="translate(141.7534,190.2856)"
                   id="g346">
                  <path
                     d="m 0,0 c 1.689,1.661 3.461,3.247 5.046,5.001 1.858,2.056 3.241,4.431 3.99,7.13 C 9.333,12.126 9.63,12.12 9.928,12.118 13.286,12.1 12.991,12.526 13.062,9.027 13.095,7.412 13.368,5.804 13.461,4.188 13.507,3.403 13.646,2.505 12.637,2.103 11.183,1.766 11.183,1.766 9.103,1.333 5.999,1.362 3.114,-0.097 0,0"
                     style="fill:#ffffff;fill-opacity:1;fill-rule:nonzero;stroke:none"
                     id="path344" />
                </g>
                <g
                   transform="translate(123.728,184.4033)"
                   id="g350">
                  <path
                     d="m 0,0 c -0.238,2.037 0.675,2.737 2.654,2.799 1.524,0.049 3.034,0.545 4.551,0.841 1.858,4.169 3.773,8.308 6.366,12.091 -1.337,-0.016 -2.649,0.005 -4,-0.271 -2.467,-0.504 -4.997,-0.712 -7.5,-1.047 -1.501,-0.202 -2.063,0.328 -2.11,1.949 -0.083,2.846 -0.123,5.322 0.196,8.502 0.222,2.211 0.032,3.287 0,4.304 -0.016,0.527 -0.316,0.39 -0.755,0.519 -2.343,0.694 -4.815,0.045 -7.115,0.606 -1.877,0.457 -2.213,-0.099 -2.189,-1.778 0.067,-4.706 -0.005,-9.414 0.041,-14.12 0.013,-1.324 -0.098,-2.044 -1.779,-2.382 -3.792,-0.762 -7.606,-1.404 -11.392,-2.176 -1.644,-0.335 -3.547,-0.181 -4.869,-1.599 3.88,-0.295 6.105,-3.028 8.355,-5.693 0.664,-0.786 1.196,-1.682 1.789,-2.527 2.412,0.416 4.829,0.806 7.235,1.258 1.22,0.23 2.016,0.161 2.01,-1.426 -0.037,-11.11 -0.021,-22.22 -0.045,-33.33 -10e-4,-0.334 -0.25,-0.667 -0.383,-1 0.011,-0.315 0.022,-0.63 0.033,-0.945 0.054,-0.089 0.117,-0.174 0.154,-0.268 0.007,-0.021 -0.081,-0.078 -0.126,-0.119 0.192,-3.241 0.383,-6.481 0.578,-9.722 0.048,-0.804 0.252,-1.617 -0.149,-2.393 -0.845,-0.682 -0.41,-1.632 -0.517,-2.468 -0.201,-1.572 0.413,-3.211 -0.387,-4.736 0.689,-5.739 1.184,-11.493 1.118,-17.278 -0.031,-2.739 -0.208,-5.479 -0.32,-8.217 0.155,-1.629 -0.839,-3.194 -0.267,-4.846 1.772,0.42 3.576,0.726 5.252,1.486 0.147,4.311 0.295,8.623 0.439,12.935 0.037,1.113 0.226,2.226 0.287,3.314 0.136,2.393 0.698,4.854 -0.332,7.209 -0.783,-1.005 -0.281,-2.453 -1.269,-3.565 -0.342,2.08 0.245,3.952 0.488,5.832 0.256,1.971 0.704,3.922 1.136,5.866 0.432,1.942 0.949,3.865 1.428,5.795 -0.678,0.688 -0.375,1.553 -0.379,2.338 -0.04,6.005 0.604,11.982 0.813,17.972 0.234,6.736 0.478,13.47 0.873,20.199 z"
                     style="fill:#ffffff;fill-opacity:1;fill-rule:nonzero;stroke:none"
                     id="path348" />
                </g>
                <g
                   transform="translate(93.7437,192.4507)"
                   id="g354">
                  <path
                     d="m 0,0 c -2.331,-2.094 -2.492,-4.276 -0.466,-7.18 0.499,-0.715 1.146,-1.325 1.726,-1.984 -1.596,-1.899 -3.948,-0.741 -5.864,-1.4 -0.473,-0.163 -0.797,0.529 -0.916,1.085 -0.529,2.47 -1.067,4.939 -1.63,7.402 -0.131,0.573 -0.185,1.169 0.533,1.186 C -4.373,-0.838 -2.308,0.484 0,0"
                     style="fill:#ffffff;fill-opacity:1;fill-rule:nonzero;stroke:none"
                     id="path352" />
                </g>
                <g
                   transform="translate(95.8228,193.1816)"
                   id="g358">
                  <path
                     d="m 0,0 -0.045,-0.004 -1.498,-0.138 -0.585,-0.053 -0.178,-0.016 -0.132,-0.12 c -2.538,-2.28 -2.712,-4.786 -0.548,-7.888 0.364,-0.521 0.797,-0.985 1.215,-1.433 0.185,-0.198 0.37,-0.395 0.548,-0.598 l 0.057,-0.065 0.076,-0.044 c 5.341,-3.113 9.353,-7.949 12.262,-14.786 4.172,-9.801 3.76,-10.735 5.443,-21.002 l 0.157,-0.961 0.264,-1.604 0.745,1.444 c 0.392,0.758 0.316,1.523 0.249,2.198 -0.015,0.158 -0.031,0.316 -0.041,0.473 -0.143,2.389 -0.284,4.776 -0.426,7.164 l -0.151,2.558 -0.007,0.112 -0.051,0.099 0.032,0.093 -0.002,0.07 -0.016,0.455 -0.017,0.491 -0.002,0.045 -0.009,0.045 c -0.445,2.128 1.46,-5.351 1.222,-3.22 -0.206,1.841 -0.419,3.744 -0.759,5.61 -1.717,9.426 -3.931,16.385 -7.178,22.564 l -0.016,0.031 -0.02,0.028 c -0.185,0.264 -0.364,0.533 -0.543,0.801 -0.394,0.592 -0.802,1.204 -1.275,1.765 L 8.623,-5.711 C 6.382,-3.055 4.065,-0.31 0.045,-0.003 Z m 0.004,-0.54 c 3.881,-0.295 6.105,-3.028 8.355,-5.693 0.664,-0.786 1.197,-1.682 1.79,-2.528 3.705,-7.05 5.706,-14.622 7.125,-22.41 0.731,-4.014 -1.295,1.586 -0.461,-2.404 0.011,-0.315 0.022,-0.63 0.034,-0.945 -0.045,-0.133 -0.035,-0.262 0.028,-0.387 0.192,-3.24 0.383,-6.481 0.577,-9.722 0.048,-0.804 0.252,-1.617 -0.149,-2.392 -1.771,10.792 -1.31,11.924 -5.636,22.087 -2.655,6.238 -6.487,11.544 -12.486,15.039 -0.58,0.659 -1.227,1.27 -1.726,1.984 -2.026,2.904 -1.865,5.086 0.466,7.18 0.694,0.064 1.389,0.127 2.083,0.191"
                     style="fill:#1b1514;fill-opacity:1;fill-rule:nonzero;stroke:none"
                     id="path356" />
                </g>
                <g
                   transform="translate(95.3491,183.708)"
                   id="g362">
                  <path
                     d="m 0,0 c 5.512,-3.234 9.646,-8.224 12.636,-15.25 2.927,-6.877 3.688,-9.709 4.403,-14.057 l -0.223,3.75 c -0.067,0.185 -0.08,0.379 -0.036,0.573 l -0.031,0.863 c -0.272,1.264 -0.333,1.798 0.157,2.025 0.131,0.06 0.244,0.07 0.357,0.047 -0.014,0.079 -0.029,0.163 -0.046,0.255 -1.696,9.311 -3.876,16.176 -7.071,22.256 C 9.994,0.672 9.811,0.946 9.629,1.219 9.232,1.814 8.858,2.377 8.422,2.894 L 8.273,3.068 C 6.089,5.658 4.025,8.105 0.481,8.394 L -1.375,8.224 C -3.388,6.342 -3.457,4.49 -1.63,1.87 -1.312,1.413 -0.925,0.999 -0.516,0.561 -0.343,0.375 -0.168,0.189 0,0 m 17.243,-40.929 -0.685,4.168 c -0.289,1.765 -0.517,3.255 -0.717,4.561 -0.969,6.346 -1.261,8.262 -4.69,16.318 C 8.287,-9.155 4.349,-4.401 -0.888,-1.35 l -0.207,0.151 c -0.233,0.266 -0.415,0.459 -0.595,0.653 -0.439,0.47 -0.881,0.945 -1.264,1.494 -2.317,3.321 -2.11,6.132 0.63,8.595 L -2.06,9.782 0.512,10.01 0.557,10.007 C 4.805,9.683 7.195,6.85 9.507,4.109 L 9.655,3.934 C 10.159,3.337 10.588,2.691 10.968,2.119 11.167,1.82 11.333,1.573 11.502,1.33 L 11.57,1.223 c 3.279,-6.24 5.509,-13.246 7.236,-22.727 0.342,-1.876 0.555,-3.78 0.761,-5.621 0.037,-0.33 0.1,-0.895 -0.429,-1 -0.248,-0.05 -0.402,-0.046 -0.565,0.209 l 0.001,-0.012 0.426,-7.163 c 0.009,-0.151 0.024,-0.301 0.039,-0.451 0.071,-0.713 0.159,-1.599 -0.307,-2.499 z"
                     style="fill:#1b1514;fill-opacity:1;fill-rule:nonzero;stroke:none"
                     id="path360" />
                </g>
                <g
                   transform="translate(146.8247,206.9868)"
                   id="g366">
                  <path
                     d="m 0,0 v 0 c -1.078,0 -2.135,-0.26 -3.23,-0.795 -2.617,-1.278 -4.527,-3.348 -6.374,-5.35 L -9.92,-6.487 -9.947,-6.516 -9.969,-6.548 c -2.606,-3.801 -4.521,-7.929 -6.414,-12.176 -3.575,-10.52 -5.796,-20.505 -6.807,-30.572 l -0.184,-1.823 1.14,1.434 c 0.534,0.672 0.8,1.421 1.007,2.07 0.346,1.081 0.678,2.168 1.009,3.254 0.677,2.219 1.378,4.514 2.19,6.717 2.367,6.427 6.018,14.568 13.298,20.527 0.552,0.54 1.076,1.04 1.601,1.541 1.175,1.123 2.391,2.285 3.504,3.515 1.982,2.194 3.364,4.666 4.108,7.347 l 0.022,0.078 -0.002,0.08 C 4.42,-1.425 3.498,-0.327 0.706,-0.037 0.47,-0.013 0.233,0 0,0 m 0,-0.538 c 0.214,0 0.431,-0.011 0.65,-0.034 2.505,-0.261 3.24,-1.151 3.315,-3.998 -0.749,-2.7 -2.132,-5.074 -3.989,-7.13 -1.586,-1.754 -3.358,-3.341 -5.047,-5.001 -6.704,-5.488 -10.546,-12.841 -13.462,-20.757 -1.208,-3.28 -2.141,-6.661 -3.206,-9.993 -0.212,-0.664 -0.454,-1.318 -0.916,-1.899 1.047,10.421 3.407,20.524 6.763,30.407 1.858,4.169 3.773,8.307 6.367,12.091 1.956,2.114 3.861,4.27 6.531,5.574 0.976,0.476 1.955,0.74 2.994,0.74"
                     style="fill:#1b1514;fill-opacity:1;fill-rule:nonzero;stroke:none"
                     id="path364" />
                </g>
                <g
                   transform="translate(146.8252,205.9106)"
                   id="g370">
                  <path
                     d="M 0,0 C -0.91,0 -1.812,-0.224 -2.759,-0.686 -5.192,-1.874 -6.95,-3.778 -8.81,-5.793 l -0.321,-0.349 c -2.504,-3.663 -4.397,-7.743 -6.27,-11.944 -3.036,-8.947 -5.095,-17.564 -6.245,-26.186 0.134,0.436 0.268,0.872 0.401,1.308 0.681,2.231 1.386,4.538 2.207,6.769 2.415,6.554 6.145,14.863 13.625,20.986 0.485,0.48 1.014,0.986 1.543,1.49 1.16,1.109 2.361,2.256 3.445,3.456 1.851,2.048 3.145,4.347 3.849,6.836 C 3.348,-0.9 2.805,-0.261 0.594,-0.031 0.393,-0.01 0.194,0 0,0 m -24.092,-51.809 0.366,3.642 c 1.016,10.115 3.251,20.155 6.833,30.693 1.924,4.319 3.852,8.473 6.48,12.307 l 0.078,0.101 0.334,0.362 c 1.888,2.045 3.831,4.148 6.534,5.469 1.422,0.694 2.797,0.955 4.227,0.81 3.071,-0.32 4.191,-1.639 4.28,-5.041 L 5.042,-3.548 5.021,-3.708 C 4.234,-6.545 2.812,-9.09 0.773,-11.345 c -1.12,-1.239 -2.338,-2.402 -3.516,-3.528 -0.543,-0.52 -1.063,-1.017 -1.611,-1.553 -7.215,-5.907 -10.826,-13.964 -13.17,-20.327 -0.801,-2.173 -1.495,-4.444 -2.165,-6.64 -0.347,-1.137 -0.68,-2.227 -1.025,-3.31 -0.222,-0.694 -0.508,-1.497 -1.098,-2.24 z"
                     style="fill:#1b1514;fill-opacity:1;fill-rule:nonzero;stroke:none"
                     id="path368" />
                </g>
              </g>
            </g>
          </g>
        </g>
      </g>
    </mask>
    <clipPath
       clipPathUnits="userSpaceOnUse"
       id="clipPath388">
      <path
         d="M 86.5139,214.85 H 155.248 V 98.932 H 86.5139 Z"
         id="path386" />
    </clipPath>
  </defs>
  <sodipodi:namedview
     id="namedview4"
     pagecolor="#ffffff"
     bordercolor="#000000"
     borderopacity="0.25"
     inkscape:showpageshadow="2"
     inkscape:pageopacity="0.0"
     inkscape:pagecheckerboard="0"
     inkscape:deskcolor="#d1d1d1" />
  <g
     id="g8"
     inkscape:groupmode="layer"
     inkscape:label="Logo Paulo Afonso Oficial"
     transform="matrix(1.3333333,0,0,-1.3333333,0,340.936)">
    <g
       id="g10">
      <g
         id="g12">
        <g
           id="g18">
          <g
             id="g20">
            <path
               d="m 209.16,128.787 c -10.886,0 -16.446,-5.349 -16.446,-16.717 v 0 -62.992 c 0,-8.559 4.851,-12.572 11.95,-12.572 v 0 h 10.884 v 34.773 h 18.575 c 5.325,0 9.702,4.547 9.702,11.502 v 0 7.89 h -28.749 v 17.253 h 21.769 c 7.927,0 11.831,6.553 11.831,11.903 v 0 8.96 z"
               style="fill:url(#linearGradient28);stroke:none"
               id="path30" />
          </g>
        </g>
      </g>
    </g>
    <g
       id="g32">
      <g
         id="g34">
        <g
           id="g40">
          <g
             id="g42">
            <path
               d="m 253.995,81.443 c 0,-28.888 17.037,-47.076 39.281,-47.076 v 0 c 26.501,0 41.645,18.99 41.645,49.617 v 0 c 0,30.092 -19.166,46.943 -39.161,46.943 v 0 c -26.265,0 -41.765,-19.659 -41.765,-49.484 m 22.48,2.541 c 0,15.515 5.916,26.347 17.037,26.347 v 0 c 12.541,0 18.93,-8.426 18.93,-28.621 v 0 c 0,-16.985 -6.862,-26.615 -17.037,-26.615 v 0 c -12.305,0 -18.93,9.363 -18.93,28.889"
               style="fill:url(#linearGradient50);stroke:none"
               id="path52" />
          </g>
        </g>
      </g>
    </g>
    <g
       id="g54">
      <g
         id="g56">
        <g
           id="g62">
          <g
             id="g64">
            <path
               d="M 398.213,128.787 V 76.361 l -15.143,33.435 c -5.561,12.438 -13.489,18.991 -25.438,18.991 v 0 H 346.747 V 50.683 c 0,-9.362 6.507,-14.177 12.66,-14.177 v 0 h 9.228 v 55.503 c 0.237,-0.936 1.775,-4.146 4.023,-7.624 v 0 L 386.5,56.032 c 7.335,-14.979 14.908,-19.526 24.136,-19.526 v 0 h 8.874 v 80.379 c 0,7.489 -6.035,11.902 -11.358,11.902 v 0 z"
               style="fill:url(#linearGradient72);stroke:none"
               id="path74" />
          </g>
        </g>
      </g>
    </g>
    <g
       id="g76">
      <g
         id="g78">
        <g
           id="g84">
          <g
             id="g86">
            <path
               d="m 439.263,128.653 c -8.282,0 -12.659,-6.687 -12.659,-12.304 v 0 -8.827 h 23.308 V 49.746 c 0,-9.763 5.915,-13.24 12.659,-13.24 v 0 h 9.82 v 71.016 h 11.595 c 6.861,0 12.54,6.554 12.54,12.305 v 0 8.826 z"
               style="fill:url(#linearGradient94);stroke:none"
               id="path96" />
          </g>
        </g>
      </g>
    </g>
    <g
       id="g98">
      <g
         id="g100">
        <g
           id="g106">
          <g
             id="g108">
            <path
               d="m 519.003,128.787 c -7.927,0 -14.197,-3.476 -15.736,-15.246 v 0 c -0.946,-7.089 -1.42,-16.45 -1.42,-24.876 v 0 -15.514 c 0,-25.545 11.832,-37.849 33.246,-37.849 v 0 h 9.229 c 14.434,0 19.048,5.083 19.048,13.509 v 0 9.762 c -6.625,-1.872 -12.305,-2.541 -19.048,-2.541 v 0 h -5.916 c -11.358,0 -14.197,3.478 -14.197,13.374 v 0 3.344 h 19.285 c 7.926,0 12.304,3.745 12.304,10.432 v 0 9.227 h -31.589 c 0,4.415 0.354,11.102 0.828,15.649 v 0 h 24.846 c 9.464,0 13.605,5.885 13.605,14.711 v 0 6.018 z"
               style="fill:url(#linearGradient116);stroke:none"
               id="path118" />
          </g>
        </g>
      </g>
    </g>
    <g
       id="g120">
      <g
         id="g122"
         clip-path="url(#clipPath126)">
        <g
           id="g128"
           transform="translate(196.2896,138.8224)">
          <path
             d="m 0,0 c -0.932,0 -1.934,0.816 -1.934,2.396 v 15.645 h 1.444 c 0.816,0 1.701,-0.764 1.701,-1.923 V 0 Z"
             style="fill:#0077bd;fill-opacity:1;fill-rule:nonzero;stroke:none"
             id="path130" />
        </g>
        <g
           id="g132"
           transform="translate(208.0547,138.5064)">
          <path
             d="m 0,0 c -4.241,0 -7.969,3.476 -7.969,9.112 0,5.32 3.286,9.56 8.738,9.56 2.982,0 4.287,-1.869 4.287,-3.555 V 13.879 H 4.939 c -1.071,1.027 -2.865,1.528 -4.543,1.528 -2.959,0 -5.079,-2.449 -5.079,-5.794 0,-4.556 2.19,-6.347 5.056,-6.347 1.538,0 1.91,0.658 1.91,1.712 v 1.448 c 0,1.159 -0.139,2.107 -0.233,2.634 h 1.632 c 0.885,0 1.63,-0.87 1.63,-1.66 V 4.503 C 5.312,1.791 3.984,0 0,0"
             style="fill:#0077bd;fill-opacity:1;fill-rule:nonzero;stroke:none"
             id="path134" />
        </g>
        <g
           id="g136"
           transform="translate(220.4712,153.9132)">
          <path
             d="M 0,0 C -0.303,0 -1.072,-0.079 -1.421,-0.184 V -4.951 C -0.722,-5.109 0,-5.109 0.862,-5.109 c 1.305,0 2.4,0.842 2.4,2.449 C 3.262,-0.474 2.283,0 0.885,0 Z m 5.918,-15.223 c -1.025,0 -1.91,0.448 -2.33,1.607 L 2.4,-10.35 c -0.722,1.975 -1.398,2.107 -2.237,2.265 -0.699,0.131 -1.258,0.237 -1.584,0.237 v -7.243 h -1.025 c -1.422,0 -2.167,0.975 -2.167,2.423 V 2.449 c 0.675,0.29 2.912,0.659 4.1,0.659 h 1.771 c 3.169,0 5.243,-2.16 5.243,-5.189 0,-2.449 -1.421,-4.477 -3.286,-4.793 0.863,-0.395 1.585,-1.475 1.981,-2.528 l 1.282,-3.371 c 0.396,-1.054 0.792,-1.554 0.978,-1.87 -0.373,-0.448 -0.652,-0.58 -1.538,-0.58"
             style="fill:#0077bd;fill-opacity:1;fill-rule:nonzero;stroke:none"
             id="path138" />
        </g>
        <g
           id="g140"
           transform="translate(240.9033,140.9293)">
          <path
             d="m 0,0 c -0.023,-1.449 -0.676,-2.239 -3.472,-2.239 h -1.701 c -3.891,0 -5.941,2.424 -5.941,7.032 v 3.345 c 0,1.712 0.116,3.634 0.302,5.083 0.257,2.159 1.143,2.713 2.447,2.713 h 8.342 v -1.212 c 0,-1.264 -0.676,-1.896 -2.144,-1.896 H -7.643 C -7.806,11.509 -7.875,9.745 -7.875,8.612 h 6.151 v -1.29 c 0,-1.186 -0.652,-1.659 -1.934,-1.659 H -7.875 V 4.609 c 0,-3.134 0.908,-3.74 3.378,-3.74 h 1.025 c 1.165,0 2.353,0.106 3.495,0.395 z"
             style="fill:#0077bd;fill-opacity:1;fill-rule:nonzero;stroke:none"
             id="path142" />
        </g>
        <g
           id="g144"
           transform="translate(245.0718,138.5064)">
          <path
             d="M 0,0 C -1.748,0 -2.959,0.974 -2.959,2.081 V 3.74 h 0.116 c 0.513,-0.343 1.445,-0.58 2.401,-0.58 1.444,0 1.98,0.712 1.98,2.16 V 18.356 H 2.61 c 1.421,0 2.143,-0.842 2.143,-2.449 V 5.162 C 4.753,2.212 3.285,0 0,0"
             style="fill:#0077bd;fill-opacity:1;fill-rule:nonzero;stroke:none"
             id="path146" />
        </g>
        <g
           id="g148"
           transform="translate(258.2817,153.5445)">
          <path
             d="M 0,0 C -0.932,-1.87 -1.934,-4.741 -2.47,-7.243 H 2.47 C 1.934,-4.714 0.839,-1.686 0,0 m 5.779,-14.722 c -1.328,0 -2.028,0.869 -2.144,1.738 -0.14,1.185 -0.28,2.107 -0.443,2.871 h -6.36 c -0.327,-1.528 -0.606,-3.082 -0.839,-4.609 h -1.235 c -1.049,0 -1.468,0.632 -1.468,1.738 0,2.608 2.982,13.221 5.429,16.302 h 1.304 c 1.282,0 2.144,-0.79 2.587,-1.659 1.444,-2.923 3.844,-10.693 4.473,-16.381 z"
             style="fill:#0077bd;fill-opacity:1;fill-rule:nonzero;stroke:none"
             id="path150" />
        </g>
        <g
           id="g152"
           transform="translate(277.9668,146.8814)">
          <path
             d="m 0,0 h -2.54 v -3.713 c 0,-0.633 0.606,-1.133 1.398,-1.133 h 1.305 c 1.724,0 2.563,0.895 2.563,2.265 C 2.726,-0.632 1.864,0 0,0 m 0,7.058 h -1.188 c -0.396,0 -0.932,-0.105 -1.375,-0.184 V 2.792 h 2.446 c 1.422,0 2.587,0.632 2.587,2.186 0,1.58 -1.282,2.08 -2.47,2.08 M 0.466,-8.138 h -1.724 c -2.983,0 -4.45,1.475 -4.45,4.293 V 9.244 c 0.769,0.316 2.889,0.817 4.217,0.817 h 1.934 c 3.052,0 5.219,-1.818 5.219,-4.768 0,-2.001 -0.955,-3.292 -2.54,-3.818 1.608,-0.5 2.82,-2.371 2.82,-3.951 0,-3.634 -2.564,-5.662 -5.476,-5.662"
             style="fill:#0077bd;fill-opacity:1;fill-rule:nonzero;stroke:none"
             id="path154" />
        </g>
        <g
           id="g156"
           transform="translate(292.0386,153.5445)">
          <path
             d="M 0,0 C -0.933,-1.87 -1.935,-4.741 -2.47,-7.243 H 2.47 C 1.934,-4.714 0.839,-1.686 0,0 m 5.778,-14.722 c -1.328,0 -2.027,0.869 -2.143,1.738 -0.14,1.185 -0.281,2.107 -0.444,2.871 h -6.36 c -0.326,-1.528 -0.606,-3.082 -0.839,-4.609 h -1.235 c -1.048,0 -1.468,0.632 -1.468,1.738 0,2.608 2.982,13.221 5.429,16.302 h 1.305 c 1.282,0 2.144,-0.79 2.586,-1.659 1.445,-2.923 3.845,-10.693 4.474,-16.381 z"
             style="fill:#0077bd;fill-opacity:1;fill-rule:nonzero;stroke:none"
             id="path158" />
        </g>
        <g
           id="g160"
           transform="translate(309.2773,153.7027)">
          <path
             d="m 0,0 h -2.936 v -14.88 h -1.281 c -1.118,0 -1.933,0.816 -1.933,2.422 V 0 h -4.591 v 1.185 c 0,0.869 0.629,1.975 1.934,1.975 H 1.911 V 2.028 C 1.911,1.159 1.049,0 0,0"
             style="fill:#0077bd;fill-opacity:1;fill-rule:nonzero;stroke:none"
             id="path162" />
        </g>
        <g
           id="g164"
           transform="translate(314.8682,138.8224)">
          <path
             d="m 0,0 c -0.933,0 -1.935,0.816 -1.935,2.396 v 15.645 h 1.446 c 0.815,0 1.7,-0.764 1.7,-1.923 L 1.211,0 Z"
             style="fill:#0077bd;fill-opacity:1;fill-rule:nonzero;stroke:none"
             id="path166" />
        </g>
        <g
           id="g168"
           transform="translate(323.9531,138.5064)">
          <path
             d="M 0,0 C -3.215,0 -4.869,1.422 -4.869,3.555 V 5.162 H -4.8 c 1.072,-1.08 2.517,-1.949 4.45,-1.949 2.401,0 3.169,0.922 3.169,2.37 0,1.238 -0.419,1.791 -3.798,2.607 -2.703,0.659 -4.24,2.186 -4.24,4.636 0,3.002 2.237,5.846 5.989,5.846 3.727,0 4.799,-1.79 4.799,-3.292 V 13.721 H 5.476 c -0.979,1.185 -2.4,1.765 -4.148,1.765 -2.47,0 -3.378,-0.922 -3.378,-2.318 0,-1.08 0.745,-1.738 3.728,-2.449 C 4.59,10.034 6.012,8.322 6.012,5.899 6.012,2.344 3.868,0 0,0"
             style="fill:#0077bd;fill-opacity:1;fill-rule:nonzero;stroke:none"
             id="path170" />
        </g>
        <g
           id="g172"
           transform="translate(341.8691,153.7027)">
          <path
             d="m 0,0 h -2.936 v -14.88 h -1.281 c -1.118,0 -1.933,0.816 -1.933,2.422 V 0 h -4.591 v 1.185 c 0,0.869 0.629,1.975 1.934,1.975 H 1.911 V 2.028 C 1.911,1.159 1.049,0 0,0"
             style="fill:#0077bd;fill-opacity:1;fill-rule:nonzero;stroke:none"
             id="path174" />
        </g>
        <g
           id="g176"
           transform="translate(350.1865,153.5445)">
          <path
             d="M 0,0 C -0.933,-1.87 -1.935,-4.741 -2.47,-7.243 H 2.47 C 1.934,-4.714 0.839,-1.686 0,0 m 5.778,-14.722 c -1.328,0 -2.027,0.869 -2.143,1.738 -0.14,1.185 -0.281,2.107 -0.444,2.871 h -6.36 c -0.326,-1.528 -0.606,-3.082 -0.839,-4.609 h -1.235 c -1.048,0 -1.468,0.632 -1.468,1.738 0,2.608 2.982,13.221 5.429,16.302 h 1.305 c 1.282,0 2.144,-0.79 2.586,-1.659 1.445,-2.923 3.845,-10.693 4.474,-16.381 z"
             style="fill:#0077bd;fill-opacity:1;fill-rule:nonzero;stroke:none"
             id="path178" />
        </g>
      </g>
    </g>
    <g
       id="g180">
      <g
         id="g182">
        <g
           id="g188">
          <g
             id="g190">
            <path
               d="m 90.844,221.776 c -4.68,-1.161 -6.368,-4.803 -6.388,-7.825 v 0 c -0.013,-1.901 0.547,-3.649 1.618,-5.055 v 0 c 1.319,-1.73 3.288,-2.794 5.543,-2.997 v 0 c 0.268,-0.024 0.539,-0.036 0.803,-0.036 v 0 c 1.184,0 2.292,0.25 3.29,0.692 v 0 c -0.639,-1.419 -0.9,-2.97 -0.728,-4.492 v 0 c 0.104,-0.913 0.322,-1.773 0.638,-2.568 v 0 c -0.374,-0.133 -0.754,-0.287 -1.138,-0.477 v 0 l -1.033,-0.095 c -0.295,-0.027 -0.587,-0.073 -0.873,-0.141 v 0 c -1.58,-0.067 -2.941,-0.427 -3.961,-0.698 v 0 c -0.438,-0.116 -1.039,-0.276 -1.248,-0.287 v 0 c -2.127,-0.05 -4.077,-1.015 -5.347,-2.645 v 0 c -0.221,-0.285 -0.443,-0.619 -0.646,-1 v 0 c -4.228,-0.217 -7.447,-3.495 -7.563,-7.796 v 0 c -0.03,-1.074 0.147,-2.095 0.494,-3.032 v 0 c -0.034,0.005 -0.069,0.011 -0.102,0.017 v 0 c -1.459,0.243 -3.112,0.518 -4.923,0.518 v 0 c -3.087,0 -5.866,-0.844 -8.259,-2.51 v 0 c -3.543,-2.467 -4.604,-5.393 -4.869,-7.411 v 0 c -0.259,-1.977 -0.014,-4.989 2.634,-8.123 v 0 c 0.53,-0.627 1.078,-1.209 1.644,-1.741 v 0 C 53.3,158.545 47.445,152.147 42.897,144.924 v 0 c -2.077,-3.296 -7.406,-11.881 -9.552,-23.432 v 0 c -0.197,-1.059 -0.329,-1.941 -0.409,-2.471 v 0 c 0,0 -1.604,-10.741 -0.408,-21.208 v 0 C 35.927,68.043 57.832,49.959 57.832,49.959 v 0 C 76.727,34.36 97.775,33.886 103.899,33.886 v 0 c 8.936,0 17.669,1.531 25.957,4.549 v 0 c 8.587,3.129 16.306,7.719 22.941,13.644 v 0 c 7.05,6.298 12.647,13.911 16.635,22.629 v 0 c 4.249,9.29 6.595,19.705 6.974,30.955 v 0 c 0.003,0.074 0.004,0.148 0.004,0.222 v 0 c -0.014,10.348 -2.023,20.264 -5.972,29.473 v 0 c -2.903,6.771 -6.769,12.93 -11.528,18.402 v 0 c 0.742,1.046 1.263,2.294 1.481,3.689 v 0 c 0.074,0.476 0.094,0.959 0.059,1.44 v 0 c -0.048,0.66 -0.172,1.288 -0.349,1.888 v 0 c 0.861,-0.101 1.734,-0.212 2.624,-0.325 v 0 l 0.968,-0.123 c 1.237,-0.156 2.714,-0.316 4.279,-0.316 v 0 c 4.373,0 7.947,1.286 10.924,3.93 v 0 c 3.187,2.832 3.832,5.866 3.811,7.913 v 0 c -0.021,2.055 -0.732,5.09 -4.006,7.885 v 0 c -3.923,3.348 -8.426,3.348 -10.35,3.348 v 0 c -0.452,0 -0.884,-0.007 -1.302,-0.015 v 0 c -0.284,-0.005 -0.569,-0.01 -0.852,-0.012 v 0 c -1.119,-0.008 -2.222,-0.05 -3.311,-0.122 v 0 c 1.315,3.144 0.89,6.439 -1.063,9.052 v 0 c 0.223,1.125 0.164,2.075 0.128,2.623 v 0 l -0.008,0.122 c -0.048,0.841 -0.131,1.618 -0.21,2.37 v 0 c -0.086,0.81 -0.167,1.576 -0.179,2.23 v 0 c -0.006,0.261 -0.009,0.499 -0.012,0.716 v 0 c -0.022,1.639 -0.046,3.496 -1.253,5.351 v 0 c -1.11,1.706 -2.596,2.515 -3.922,2.899 v 0 c -0.242,0.42 -0.526,0.831 -0.858,1.229 v 0 c -2.407,2.883 -5.831,3.239 -6.956,3.356 v 0 c -0.006,0 -0.013,0.001 -0.02,0.002 v 0 c -0.442,0.044 -0.886,0.066 -1.322,0.066 v 0 c -2,0 -3.918,-0.458 -5.865,-1.399 v 0 c -0.01,-0.006 -0.021,-0.01 -0.031,-0.016 v 0 c -0.964,-0.472 -1.842,-1.014 -2.66,-1.59 v 0 c 0.831,2.919 0.11,6.043 -2.074,8.423 v 0 c -1.767,1.927 -4.13,2.988 -6.652,2.988 v 0 c -1.559,0 -3.144,-0.398 -4.845,-1.219 v 0 c -0.001,0 -0.001,0 -0.002,0 v 0 c -0.022,0.003 -0.042,0.01 -0.065,0.014 v 0 c -1.705,0.461 -3.287,0.527 -4.746,0.527 v 0 c -0.18,0 -0.36,-0.001 -0.54,-0.002 v 0 c -0.158,-10e-4 -0.314,-0.002 -0.472,-0.002 v 0 c -0.283,0 -1.039,0 -1.346,0.076 v 0 c -0.922,0.224 -1.753,0.333 -2.54,0.333 v 0 c -2.055,0 -3.941,-0.765 -5.313,-2.156 v 0 c -2.237,-2.269 -2.197,-5.131 -2.181,-6.208 v 0 c 0.007,-0.507 0.011,-1.018 0.016,-1.529 v 0 c -0.927,0.423 -1.948,0.712 -3.046,0.839 v 0 c -0.242,0.027 -0.486,0.042 -0.729,0.042 v 0 c -0.048,0 -0.095,-0.001 -0.143,-0.002 v 0 c -1.447,-0.032 -2.865,-0.42 -4.138,-1.108 v 0 c 0.254,0.686 0.422,1.422 0.489,2.198 v 0 c 0.367,4.219 -2.28,7.694 -6.586,8.647 v 0 c -0.452,0.1 -0.911,0.15 -1.37,0.15 v 0 c -0.513,0 -1.026,-0.062 -1.528,-0.186 m 54.33,-37.728 c 0.228,0.034 0.45,0.073 0.67,0.113 v 0 c 0.213,-0.906 0.537,-1.667 0.878,-2.277 v 0 c 0.451,-0.806 1.02,-1.518 1.687,-2.124 v 0 c -3.869,-1.534 -7.474,-3.599 -10.802,-6.192 v 0 c 1.826,3.762 4.107,7.301 7.567,10.48"
               style="fill:url(#linearGradient198);stroke:none"
               id="path200" />
          </g>
        </g>
      </g>
    </g>
    <g
       id="g202">
      <g
         id="g204"
         clip-path="url(#clipPath208)">
        <g
           id="g210"
           transform="translate(151.9324,188.3902)">
          <path
             d="M 0,0 C 1.029,0.937 2.224,1.12 3.534,0.771 4.898,-0.248 5.346,-1.594 4.61,-3.114 4.035,-4.303 2.894,-4.702 1.597,-4.43 -0.274,-4.038 -0.856,-2.387 0,0"
             style="fill:#ffffff;fill-opacity:1;fill-rule:nonzero;stroke:none"
             id="path212" />
        </g>
        <g
           id="g214"
           transform="translate(153.7277,158.5314)">
          <path
             d="m 0,0 c -0.167,-1.069 -0.753,-1.705 -1.783,-1.629 -0.994,0.074 -1.655,0.707 -1.567,1.759 0.084,1.001 0.696,1.609 1.763,1.558 C -0.505,1.635 -0.069,0.946 0,0"
             style="fill:#ffffff;fill-opacity:1;fill-rule:nonzero;stroke:none"
             id="path216" />
        </g>
        <g
           id="g218"
           transform="translate(38.1971,114.4052)">
          <path
             d="m 0,0 c 0.348,3.088 0.51,3.881 0.941,5.801 3.802,16.927 12.819,30.363 26.884,40.531 1.85,1.337 2.184,-0.046 3.044,-0.972 1.199,-1.293 -0.066,-1.582 -0.772,-2.097 C 11.989,30.031 2.856,12.219 3.339,-10.162 c 0.637,-29.482 24.244,-55.237 53.649,-58.97 33.67,-4.275 64.067,17.637 69.728,51.003 3.758,22.148 -3.202,41.114 -19.631,56.554 -0.743,0.698 -2.011,1.112 -0.785,2.606 1.156,1.411 1.848,1.529 3.288,0.258 27.095,-23.917 29.305,-66.75 4.679,-93.189 -14.141,-15.183 -31.705,-22.648 -52.435,-21.415 -30.694,1.826 -54.908,23.114 -61.085,52.929 -0.419,2.017 -0.844,4.599 -0.914,6.712 C -0.324,-8.89 -0.533,-4.723 0,0"
             style="fill:#ffffff;fill-opacity:1;fill-rule:nonzero;stroke:none"
             id="path220" />
        </g>
        <g
           id="g222">
          <g
             id="g224" />
          <g
             id="g262"
             mask="url(#mask234)">
            <g
               id="g264" />
            <g
               id="g276">
              <g
                 clip-path="url(#clipPath268)"
                 id="g274">
                <g
                   transform="translate(85.0654,87.9009)"
                   id="g272">
                  <path
                     d="m 0,0 c 9.083,4.072 18.41,7.488 27.933,10.38 0.643,0.195 1.272,0.433 1.907,0.651 1.772,0.42 3.576,0.726 5.251,1.486 6.587,1.376 13.115,3.033 19.801,3.941 6.838,0.928 13.687,1.56 20.594,1.59 1.389,0.006 1.666,-0.319 1.595,-1.778 C 76.828,11.02 76.186,5.869 74.366,0.908 71.346,0.69 68.641,-0.68 65.798,-1.513 52.679,-5.36 39.338,-7.451 25.658,-6.614"
                     style="fill:#ffffff;fill-opacity:1;fill-rule:nonzero;stroke:none"
                     id="path270" />
                </g>
              </g>
            </g>
          </g>
        </g>
        <g
           id="g278"
           transform="translate(114.3738,129.2727)">
          <path
             d="m 0,0 c 0.69,-5.739 1.184,-11.493 1.119,-17.278 -0.032,-2.74 -0.209,-5.479 -0.321,-8.218 -0.101,3.541 -0.542,7.355 -0.789,11.033 -0.774,11.516 -2.15,22.885 -7.165,33.497 -5.357,11.337 -14.404,16.95 -26.855,17.352 -3.141,0.102 -6.279,0.299 -9.419,0.357 -3.261,0.06 -5.699,1.62 -7.707,3.997 -1.955,2.314 -1.508,4.479 1.013,6.235 2.993,2.083 6.181,1.308 9.33,0.806 20.492,-3.265 32.132,-16.1 38.007,-35.115 C -1.507,8.524 -0.684,4.276 0,0"
             style="fill:#ffffff;fill-opacity:1;fill-rule:nonzero;stroke:none"
             id="path280" />
        </g>
        <g
           id="g282"
           transform="translate(120.5507,123.8747)">
          <path
             d="m 0,0 c -0.783,-1.004 -0.281,-2.452 -1.268,-3.564 -0.343,2.08 0.244,3.952 0.488,5.832 0.255,1.971 0.703,3.922 1.136,5.866 0.431,1.942 0.948,3.864 1.428,5.795 2.565,8.828 6.159,17.148 12.081,24.314 8.145,9.857 18.699,14.614 31.431,14.705 2.899,0.021 5.843,0.33 8.341,-1.803 2.326,-1.986 2.389,-4.195 0.098,-6.23 C 50.714,42.23 47.176,42.393 43.542,42.852 39.544,43.357 35.574,43.929 31.496,43.706 22.284,43.203 15.722,38.454 10.94,31.038 4.845,21.585 1.76,11.008 0,0"
             style="fill:#ffffff;fill-opacity:1;fill-rule:nonzero;stroke:none"
             id="path284" />
        </g>
        <g
           id="g286"
           transform="translate(123.392,105.1796)">
          <path
             d="m 0,0 c 0.568,5.256 0.751,10.552 1.693,15.77 1.076,5.957 2.353,11.846 5.265,17.242 1.18,2.186 2.575,4.209 4.622,5.687 0.6,0.432 1.249,0.861 1.943,1.086 1.385,0.45 2.885,0.665 3.995,-0.514 1.146,-1.216 0.625,-2.65 0.077,-3.988 C 17.248,34.435 16.689,33.69 15.932,33.208 9.107,28.86 5.949,22.153 3.869,14.728 2.501,9.843 1.412,4.903 0.791,-0.135 0.528,-0.09 0.264,-0.045 0,0"
             style="fill:#ffffff;fill-opacity:1;fill-rule:nonzero;stroke:none"
             id="path288" />
        </g>
        <g
           id="g290"
           transform="translate(109.7005,104.6337)">
          <path
             d="m 0,0 c -1.499,7.261 -2.768,14.526 -5.597,21.405 -1.983,4.821 -4.878,8.892 -9.259,11.826 -1.425,0.954 -2.412,2.202 -2.776,3.919 -0.467,2.197 0.527,3.479 2.797,3.499 2.327,0.02 3.899,-1.413 5.348,-2.936 2.199,-2.311 3.633,-5.108 4.728,-8.075 C -1.224,20.063 -0.123,10.095 0,0"
             style="fill:#ffffff;fill-opacity:1;fill-rule:nonzero;stroke:none"
             id="path292" />
        </g>
        <g
           id="g294"
           transform="translate(103.7241,205.8372)">
          <path
             d="M 0,0 C 1.54,-0.178 2.558,-1.046 2.738,-2.664 2.899,-4.103 1.421,-5.662 -0.027,-5.592 -1.662,-5.512 -2.65,-4.575 -2.834,-2.954 -2.997,-1.521 -1.548,-0.035 0,0"
             style="fill:#ffffff;fill-opacity:1;fill-rule:nonzero;stroke:none"
             id="path296" />
        </g>
        <g
           id="g298"
           transform="translate(127.4323,210.2958)">
          <path
             d="m 0,0 c -1.041,1.415 -1.019,2.828 0.011,4.237 1.425,0.687 2.836,1 4.068,-0.343 C 4.923,2.974 5.061,1.87 4.432,0.813 3.298,-1.095 1.685,-0.846 0,0"
             style="fill:#ffffff;fill-opacity:1;fill-rule:nonzero;stroke:none"
             id="path300" />
        </g>
        <g
           id="g302"
           transform="translate(81.5033,184.4993)">
          <path
             d="m 0,0 c -1.12,0.18 -1.775,0.766 -1.747,1.789 0.028,1.029 0.724,1.669 1.746,1.634 C 1.012,3.389 1.682,2.73 1.648,1.69 1.614,0.658 0.903,0.144 0,0"
             style="fill:#ffffff;fill-opacity:1;fill-rule:nonzero;stroke:none"
             id="path304" />
        </g>
        <g
           id="g306"
           transform="translate(91.9756,215.7232)">
          <path
             d="M 0,0 C 1.14,-0.252 1.729,-0.847 1.638,-1.905 1.545,-2.977 0.863,-3.496 -0.188,-3.402 -1.172,-3.313 -1.578,-2.657 -1.572,-1.709 -1.564,-0.582 -0.823,-0.204 0,0"
             style="fill:#ffffff;fill-opacity:1;fill-rule:nonzero;stroke:none"
             id="path308" />
        </g>
        <g
           id="g310"
           transform="translate(114.8493,148.5915)">
          <path
             d="M 0,0 C -0.063,0.125 -0.072,0.254 -0.028,0.386 0.026,0.298 0.089,0.213 0.125,0.118 0.133,0.098 0.044,0.04 0,0"
             style="fill:#ffffff;fill-opacity:1;fill-rule:nonzero;stroke:none"
             id="path312" />
        </g>
        <g
           id="g314"
           transform="translate(86.2498,86.9397)">
          <path
             d="m 0,0 c 7.876,-3.101 16.033,-5.137 24.474,-5.653 13.679,-0.836 27.02,1.254 40.14,5.101 2.843,0.834 5.548,2.203 8.568,2.421 C 71.193,-5.717 67.367,-12.351 62.365,-18.302 52.72,-29.779 40.361,-36.7 25.541,-38.717 c -17.033,-2.318 -32.398,2.079 -45.66,13.073 -11.818,9.797 -18.421,22.536 -20.578,37.639 -0.328,2.293 -0.118,2.405 2.141,2.245 9.584,-0.678 17.962,-4.879 26.423,-8.863 2.842,-1.338 5.722,-2.596 8.576,-3.909"
             style="fill:#ffffff;fill-opacity:1;fill-rule:nonzero;stroke:none"
             id="path316" />
        </g>
        <g
           id="g318"
           transform="translate(114.8541,137.3955)">
          <path
             d="m 0,0 c -1.684,10.283 -3.426,20.916 -7.612,30.747 -2.932,6.892 -6.981,11.769 -12.374,14.912 -0.246,0.258 -0.433,0.458 -0.619,0.659 -0.413,0.44 -0.839,0.897 -1.192,1.404 -2.099,3.008 -1.942,5.332 0.507,7.533 l 0.066,0.06 2.173,0.199 c 3.953,-0.297 6.232,-3 8.437,-5.613 l 0.148,-0.175 c 0.465,-0.551 0.87,-1.159 1.261,-1.747 0.179,-0.268 0.358,-0.536 0.543,-0.8 3.252,-6.185 5.457,-13.12 7.169,-22.516 0.338,-1.857 0.55,-3.754 0.755,-5.59 0.24,-2.138 0.488,-4.349 0.936,-6.49 L 0.236,11.592 C 0.201,11.432 0.205,11.376 0.235,11.316 L 0.26,11.267 0.842,1.49 C 0.851,1.329 0.867,1.167 0.883,1.007 0.95,0.337 1.018,-0.354 0.662,-1.042 L 0.301,-2.479 Z"
             style="fill:#ffffff;fill-opacity:1;fill-rule:nonzero;stroke:none"
             id="path320" />
        </g>
        <g
           id="g322"
           transform="translate(123.902,157.6644)">
          <path
             d="m 0,0 c 0.544,10.082 3.226,20.011 6.776,30.465 1.898,4.26 3.808,8.377 6.399,12.157 L 13.52,43 c 1.829,1.982 3.722,4.031 6.291,5.286 1.058,0.516 2.076,0.767 3.111,0.767 0.223,0 0.449,-0.011 0.679,-0.035 2.647,-0.275 3.477,-1.27 3.555,-4.259 C 26.414,42.04 25.052,39.605 23.097,37.443 21.992,36.22 20.782,35.063 19.61,33.944 19.084,33.442 18.558,32.939 18.039,32.429 10.693,26.414 7.021,18.23 4.641,11.771 3.828,9.561 2.814,7.56 2.135,5.337 1.804,4.252 1.404,3.189 1.059,2.109 c -0.199,-0.625 0,0 -0.581,-2.303 -0.126,-0.5 -0.495,-2.001 -0.495,-2.001 0,0 -0.013,1.647 0.017,2.195"
             style="fill:#ffffff;fill-opacity:1;fill-rule:nonzero;stroke:none"
             id="path324" />
        </g>
        <g
           id="g326">
          <g
             id="g328" />
          <g
             id="g382"
             mask="url(#mask338)">
            <g
               id="g384" />
            <g
               id="g404">
              <g
                 clip-path="url(#clipPath388)"
                 id="g402">
                <g
                   transform="translate(141.7535,190.2858)"
                   id="g392">
                  <path
                     d="m 0,0 c 1.689,1.661 3.461,3.247 5.047,5.001 1.857,2.056 3.24,4.43 3.989,7.13 0.297,-0.004 0.594,-0.011 0.892,-0.013 3.358,-0.019 3.063,0.408 3.134,-3.091 C 13.095,7.412 13.368,5.804 13.461,4.188 13.507,3.403 13.647,2.505 12.637,2.103 11.183,1.766 11.183,1.766 9.103,1.332 5.999,1.362 3.114,-0.097 0,0"
                     style="fill:#ffffff;fill-opacity:1;fill-rule:nonzero;stroke:none"
                     id="path390" />
                </g>
                <g
                   transform="translate(123.7282,184.4032)"
                   id="g396">
                  <path
                     d="m 0,0 c -0.238,2.037 0.675,2.737 2.654,2.8 1.524,0.048 3.034,0.544 4.551,0.841 1.858,4.168 3.773,8.307 6.366,12.091 -1.337,-0.017 -2.649,0.004 -4,-0.272 -2.468,-0.504 -4.997,-0.712 -7.5,-1.047 -1.501,-0.201 -2.063,0.328 -2.11,1.949 -0.083,2.847 -0.123,5.322 0.196,8.502 0.222,2.212 0.032,3.288 0,4.304 -0.016,0.528 -0.316,0.39 -0.755,0.52 -2.343,0.694 -4.815,0.045 -7.115,0.605 -1.877,0.458 -2.213,-0.099 -2.189,-1.778 0.066,-4.706 -0.005,-9.414 0.041,-14.12 0.013,-1.324 -0.098,-2.044 -1.779,-2.382 -3.792,-0.761 -7.606,-1.403 -11.392,-2.175 -1.645,-0.336 -3.547,-0.182 -4.869,-1.599 3.881,-0.296 6.105,-3.028 8.355,-5.694 0.664,-0.786 1.196,-1.682 1.789,-2.527 2.412,0.416 4.829,0.806 7.234,1.259 1.22,0.229 2.016,0.16 2.011,-1.427 -0.037,-11.11 -0.021,-22.22 -0.045,-33.33 -10e-4,-0.334 -0.25,-0.667 -0.383,-1 0.011,-0.315 0.022,-0.63 0.033,-0.945 0.054,-0.089 0.117,-0.173 0.153,-0.268 0.008,-0.021 -0.081,-0.078 -0.125,-0.119 0.192,-3.24 0.383,-6.481 0.578,-9.722 0.048,-0.804 0.252,-1.617 -0.149,-2.392 -0.207,-1.728 -0.016,-2.977 -0.123,-3.812 -0.202,-1.573 0.019,-1.868 -0.781,-3.393 0.689,-5.739 1.184,-11.493 1.118,-17.278 -0.031,-2.74 -0.209,-5.478 -0.32,-8.217 0.155,-1.629 -0.101,-2.963 -0.267,-4.845 1.772,0.419 3.576,0.725 5.251,1.485 0.059,1.719 0.058,3.415 0.024,5.108 -0.05,2.556 -0.173,5.105 -0.273,7.713 0.037,1.112 -0.062,2.414 0,3.502 0.136,2.393 0.417,4.085 0.644,7.134 -0.784,-1.004 -0.281,-2.452 -1.269,-3.564 -0.342,2.081 0.245,3.953 0.488,5.832 0.256,1.972 0.704,3.922 1.136,5.867 0.432,1.941 0.949,3.864 1.429,5.795 -0.344,1.114 -0.375,1.552 -0.381,2.337 -0.04,6.005 0.605,11.982 0.813,17.972 0.235,6.737 0.479,13.47 0.873,20.199 z"
                     style="fill:#ffffff;fill-opacity:1;fill-rule:nonzero;stroke:none"
                     id="path394" />
                </g>
                <g
                   transform="translate(93.7439,192.4509)"
                   id="g400">
                  <path
                     d="m 0,0 c -2.331,-2.094 -2.492,-4.276 -0.466,-7.18 0.498,-0.715 1.146,-1.326 1.725,-1.984 -1.595,-1.9 -3.947,-0.741 -5.863,-1.401 -0.473,-0.162 -0.797,0.53 -0.916,1.085 -0.529,2.471 -1.068,4.94 -1.63,7.403 -0.131,0.573 -0.185,1.169 0.533,1.186 C -4.373,-0.838 -2.308,0.484 0,0"
                     style="fill:#ffffff;fill-opacity:1;fill-rule:nonzero;stroke:none"
                     id="path398" />
                </g>
              </g>
            </g>
          </g>
        </g>
        <g
           id="g406"
           transform="translate(121.1378,100.6246)">
          <path
             d="M 0,0 C 0,0 -0.23,0.273 -0.564,1.941 -0.693,2.59 -1.056,8.967 -1.064,8.278 -1.091,5.796 -1.397,-0.394 -1.397,-0.394 Z"
             style="fill:#ffffff;fill-opacity:1;fill-rule:nonzero;stroke:none"
             id="path408" />
        </g>
      </g>
    </g>
  </g>
</svg>