<svg xmlns="http://www.w3.org/2000/svg" version="1.1" viewBox="-5.0 -10.0 110.0 135.0">
 <path d="m42.203 65.551c0 1.6797-2.5508 1.6797-2.5508 0v-5.1211c0-2.7461-4.2422-2.8477-4.2422 0v9.6016c0.11719 0.66016 3.1367 8.1992 3.1367 8.8945l0.003906 3.5078h24.145l0.050782-4.5039 1.1094-5.8281v-24.598c0-1.9727-3-1.9727-3 0v14.105c0 1.6797-2.5508 1.6797-2.5508 0v-15.875c0-1.957-3.6289-1.9844-3.6641-0.023437v14.969c0 1.6797-2.5508 1.6797-2.5508 0v-17.922c0-1.9961-3.6641-1.957-3.6641 0v18.238c0 1.6797-2.5508 1.6797-2.5508 0v-16.152c0-1.9922-3.6641-1.9414-3.6641 0v20.711zm-2.5508-9.2773c-0.80078-0.41016-1.7031-0.58203-2.5977-0.48828l-14.07-14.07-3.3281-4.8906c-0.27734-0.41016-2.5469-2.6094-3.1523-3.2266l17.07-17.07 3.1562 2.832 9.7695 2.0117 6.6758 6.6758c1.9492 1.9492-1.0078 4.9922-3 3l-4.7344-4.7344c-1.1875-1.1875-2.9883 0.61719-1.8047 1.8047l11.281 11.281-1.0703 1.0703c-1.3789-1.832-4.0234-2.2695-5.9688-1.1016l-4.3203-4.3203c-1.1875-1.1875-2.9883 0.61719-1.8047 1.8047l4.4219 4.4219c-1.5156-0.78516-3.418-0.61719-4.8086 0.375l-1.9805-1.9805c-1.1875-1.1875-2.9883 0.61719-1.8047 1.8047l2.2422 2.2422c-0.30469 0.95312-0.17578 3.8086-0.17578 5.0039l-5.3125-5.3125c-1.1875-1.1875-2.9883 0.61719-1.8047 1.8047l7.1172 7.1172v3.9609zm23.52-12.738 2.4336-2.4336c1.1875-1.1875-0.61719-2.9883-1.8047-1.8047l-3.9141 3.9141c-0.9375-1.082-2.2422-1.5625-3.6602-1.5234l3.8242-3.8242c0.49609-0.49609 0.49609-1.3047 0-1.8047-1.1484-1.1484-2.3164 0.51172-3.332 1.5273l-3.6055-3.6055c3.3125-1.0664 4.293-5.2695 1.8906-7.7148l3.2812-3.2812 4.8906-3.3281 3.2266-3.1523 17.07 17.07-2.4805 2.4844-4.0508 8.4727-7.8477 6.8086c-0.73438 0.63672-1.8359 0.87891-2.6953 0.35547v-3.5938l4.4102-3.6055c1.293-1.0586-0.32031-3.0312-1.6133-1.9727l-3.4297 2.8047c-0.58203-0.91016-1.5312-1.5742-2.5938-1.7969zm3.2266 10.883-0.042969 18.117-1.0977 5.7656-0.027343 4.1367c0.70312 0 1.9102-0.015625 1.9102 1.2773v10.02c0 0.70312-0.57031 1.2773-1.2773 1.2773h-30.516c-0.70312 0-1.2734-0.57031-1.2734-1.2773v-10.02c0-1.3047 1.2305-1.2773 1.9297-1.2773v-3.2812c-0.11328-0.64062-3.1445-8.25-3.1445-8.9102v-9.8125c0-1.3867 0.61719-2.6797 1.668-3.5703l-13.625-13.695-3.2734-4.8125-2.918-2.9609c-0.49609 0.49609-1.3398 1.3594-2.25 0.44531l-7.082-7.082c-0.49609-0.49609-0.49609-1.3047 0-1.8047l21.57-21.578c0.49609-0.49609 1.3047-0.49609 1.8047 0l7.082 7.082c0.92187 0.92188 0.03125 1.7695-0.46094 2.2656l2.2109 2.2109 9.8047 2.0195c0.24609 0.050781 0.47266 0.16797 0.64844 0.34375l5.1641 5.1641 3.6289-3.5586 4.8125-3.2734 2.9609-2.918c-0.49609-0.49609-1.3594-1.3398-0.44531-2.25l7.082-7.082c0.49609-0.49609 1.3047-0.49609 1.8047 0l21.578 21.578c0.49609 0.49609 0.49609 1.3047 0 1.8047l-7.082 7.082c-0.92188 0.92188-1.7695 0.03125-2.2656-0.46094l-2.3242 2.3281-4.1406 8.5781-8.0508 6.9844c-1.1914 1.0352-2.8125 1.5078-4.3594 1.1523zm-1.8086 30.566h-27.965v7.4688h27.965zm-20.859 5.0078h13.754c1.6797 0 1.6797-2.5508 0-2.5508h-13.754c-1.6797 0-1.6797 2.5508 0 2.5508zm23.137-76.633 19.773 19.773 5.2812-5.2812-19.773-19.773zm18.293 11.207-9.7266-9.7266c-1.1875-1.1875-2.9883 0.61719-1.8047 1.8047l9.7266 9.7266c1.1875 1.1875 2.9883-0.61719 1.8047-1.8047zm-71.801 8.5664 19.773-19.773-5.2812-5.2812-19.773 19.773zm11.207-18.293-9.7266 9.7266c-1.1875 1.1875 0.61719 2.9883 1.8047 1.8047l9.7266-9.7266c1.1875-1.1875-0.61719-2.9883-1.8047-1.8047z" fill-rule="evenodd"/>
<text x="0.0" y="117.5" font-size="5.0" font-weight="bold" font-family="Arbeit Regular, Helvetica, Arial-Unicode, Arial, Sans-serif" fill="#000000">Created by Nizar AnT</text><text x="0.0" y="122.5" font-size="5.0" font-weight="bold" font-family="Arbeit Regular, Helvetica, Arial-Unicode, Arial, Sans-serif" fill="#000000">from Noun Project</text></svg>