<svg xmlns="http://www.w3.org/2000/svg" xmlns:xlink="http://www.w3.org/1999/xlink" version="1.1" x="0px" y="0px" viewBox="0 0 100 125" style="enable-background:new 0 0 100 100;" xml:space="preserve"><path d="M96.82,27.28l-6.44-11.16c-0.18-0.31-0.47-0.53-0.81-0.62c-0.34-0.09-0.7-0.04-1.01,0.13l-5.4,3.12  c-0.43,0.25-0.82,0.37-1.31,0.42l-7.31,0.67c-5.81,0.53-7.97,4.38-8.67,5.64l-0.92,1.64c-1.61-0.61-3.33-0.94-5.12-0.94  c-6.59,0-10.12,3.13-13.08,8.31c-2.97-5.19-6.49-8.31-13.08-8.31c-7.95,0-14.42,6.47-14.42,14.42c0,5.78,2.35,10.7,6.26,15.58  l-1.94-0.02c-1.45-0.02-5.86-0.07-9.22,4.69l-4.24,6c-0.28,0.4-0.59,0.68-1.02,0.93l-5.4,3.12c-0.64,0.37-0.86,1.18-0.49,1.82  l6.44,11.16c0.18,0.31,0.47,0.53,0.81,0.62c0.11,0.03,0.23,0.05,0.34,0.05c0.23,0,0.46-0.06,0.67-0.18l4.97-2.87  c0.54-0.31,1.05-0.44,1.67-0.43c0.05,0,0.1,0,0.15,0c4.26,0,10.12-3.42,12.16-7.11c0.3-0.55,0.66-0.92,1.21-1.23l6.55-3.78  c2.5,2.31,5.07,4.71,7.65,7.29c0.26,0.26,0.6,0.39,0.94,0.39c0.34,0,0.68-0.13,0.94-0.39c2.79-2.79,5.58-5.37,8.27-7.86  c9.43-8.72,17.58-16.29,18.22-26.48l2.01-1.16c0.54-0.31,1.04-0.44,1.67-0.43c4.27,0.08,10.25-3.37,12.31-7.11  c0.3-0.54,0.67-0.92,1.21-1.23l4.97-2.87C96.97,28.74,97.19,27.92,96.82,27.28z M33.65,28.86c5.42,0,8.42,2.24,11.75,8.81v10.02  c0,1.34,1.09,2.42,2.42,2.42h1.53c1.32,0,2.4,1.08,2.4,2.4c0,1.32-1.08,2.4-2.4,2.4h-1.53c-1.34,0-2.42,1.09-2.42,2.42v14.81  c-1.79-1.73-3.56-3.38-5.3-4.99c0.27-0.43,0.5-0.88,0.63-1.39c0.35-1.3,0.17-2.65-0.5-3.81c-1.39-2.4-4.47-3.23-6.87-1.84  l-0.45,0.26C26.28,53.79,21.9,47.85,21.9,40.61C21.9,34.13,27.17,28.86,33.65,28.86z M30.26,70.42c-0.95,0.55-1.68,1.29-2.21,2.25  c-1.55,2.82-6.56,5.73-9.82,5.73c-0.04,0-0.07,0-0.1,0c-1.1-0.02-2.1,0.24-3.05,0.79l-3.81,2.2l-5.11-8.86l4.25-2.45  c0.76-0.44,1.35-0.98,1.86-1.7l4.24-6c2.56-3.62,5.68-3.58,7.02-3.56l4.27,0.05c0.86,0.95,1.77,1.9,2.73,2.86l-2.99,1.73  c-1.08,0.45-1.97,0.42-2.71-0.07c-0.6-0.4-0.9-0.97-0.92-1c-0.32-0.66-1.11-0.93-1.77-0.62c-0.66,0.32-0.94,1.11-0.63,1.78  c0.74,1.55,3.19,4.03,7.15,2.33c0.05-0.02,0.1-0.04,0.14-0.07l5.91-3.41c1.13-0.65,2.58-0.26,3.23,0.87  c0.31,0.54,0.4,1.18,0.23,1.79c-0.16,0.61-0.55,1.12-1.1,1.44L30.26,70.42z M54.14,66.42c-1.98,1.83-4.02,3.72-6.07,5.7V57.56h1.28  c2.79,0,5.06-2.27,5.06-5.06c0-2.79-2.27-5.06-5.06-5.06h-1.28v-9.78c3.34-6.57,6.33-8.81,11.75-8.81c3.62,0,6.95,1.63,9.18,4.42  l-4.64,2.68c-2.4,1.39-3.23,4.47-1.84,6.87c0.67,1.16,1.75,1.99,3.05,2.34c0.44,0.12,0.88,0.17,1.32,0.17c0.87,0,1.73-0.23,2.5-0.67  l1.92-1.11C69.93,51.79,62.88,58.34,54.14,66.42z M90.04,29.66c-0.95,0.55-1.68,1.29-2.21,2.25c-1.57,2.85-6.67,5.8-9.92,5.73  c-1.1-0.02-2.1,0.24-3.05,0.79l-6.8,3.93c-0.54,0.31-1.18,0.4-1.79,0.23c-0.61-0.16-1.12-0.55-1.44-1.1  c-0.65-1.13-0.26-2.58,0.87-3.23l5.91-3.41c0.05-0.03,0.09-0.06,0.13-0.09c3.45-2.58,2.52-5.94,1.55-7.36  c-0.42-0.61-1.25-0.77-1.86-0.35c-0.61,0.42-0.77,1.24-0.35,1.85c0,0.01,0.36,0.57,0.41,1.3c0.03,0.51-0.11,0.98-0.4,1.42  c-1.06-1.34-2.34-2.46-3.76-3.32l0.85-1.51c0.65-1.16,2.18-3.89,6.59-4.29l7.31-0.67c0.88-0.08,1.64-0.32,2.4-0.76l4.25-2.45  l5.11,8.85L90.04,29.66z"/><text x="0" y="115" fill="#000000" font-size="5px" font-weight="bold" font-family="'Helvetica Neue', Helvetica, Arial-Unicode, Arial, Sans-serif">Created by Articon</text><text x="0" y="120" fill="#000000" font-size="5px" font-weight="bold" font-family="'Helvetica Neue', Helvetica, Arial-Unicode, Arial, Sans-serif">from the Noun Project</text></svg>