<svg xmlns="http://www.w3.org/2000/svg" data-name="Layer 1" viewBox="0 0 100 125" x="0px" y="0px"><defs><style>.cls-1{fill-rule:evenodd;}</style></defs><title>a</title><path class="cls-1" d="M15.959,58.675,11.986,44.92a1.6,1.6,0,0,0-.739-.951v0a1.5,1.5,0,0,0-2.052.558l0,0a1.506,1.506,0,0,0-.152,1.149l4.937,18.428c1.254,4.7,3.668,8.118,6.306,11.839,1.3,1.834,2.715,3.83,4.2,6.221L40.064,78c.522-4.134-1.8-11.284-5.368-13.4L20.861,56.4a1.518,1.518,0,0,0-1.55,2.611L30.884,65.87A1.361,1.361,0,0,1,29.5,68.214L17.926,61.359a4.234,4.234,0,0,1-1.967-2.684ZM64.975,20.14a1.364,1.364,0,1,1-2.727,0A3.238,3.238,0,0,0,59.011,16.9a1.364,1.364,0,0,1,0-2.727,5.966,5.966,0,0,1,5.964,5.964ZM50,15.076c2.124-3.428,4.709-5.31,9.008-5.31A10.379,10.379,0,0,1,69.386,20.14c0,4.84-2.364,9.605-5.909,14.332A135.371,135.371,0,0,1,50.964,48.137a1.362,1.362,0,0,1-1.928,0A135.371,135.371,0,0,1,36.523,34.472c-3.545-4.727-5.909-9.492-5.909-14.332A10.379,10.379,0,0,1,40.989,9.766c4.35,0,6.842,1.77,9.014,5.31Zm4.505-1.2a6.837,6.837,0,0,1,4.5-1.386,7.651,7.651,0,0,1,7.648,7.647c0,4.172-2.142,8.418-5.355,12.7A124.26,124.26,0,0,1,50,45.245a124.26,124.26,0,0,1-11.3-12.4c-3.213-4.284-5.355-8.53-5.355-12.7a7.651,7.651,0,0,1,7.648-7.647c3.837,0,5.8,2,7.8,6a1.359,1.359,0,0,0,2.429,0,13.529,13.529,0,0,1,3.293-4.614ZM29.093,8.344A1.36,1.36,0,1,1,27.73,10.7L22.261,7.541a1.36,1.36,0,0,1,1.364-2.354l5.468,3.157ZM27.73,33.35a1.36,1.36,0,0,1,1.363,2.355l-5.468,3.157a1.361,1.361,0,0,1-1.364-2.355L27.73,33.35ZM25.061,20.661a1.364,1.364,0,1,1,0,2.727H18.747a1.364,1.364,0,0,1,0-2.727ZM72.27,10.7a1.36,1.36,0,1,1-1.363-2.354l5.468-3.157a1.36,1.36,0,0,1,1.364,2.354L72.27,10.7ZM70.907,35.705A1.36,1.36,0,1,1,72.27,33.35l5.469,3.157a1.361,1.361,0,0,1-1.364,2.355l-5.468-3.157Zm4.032-12.317a1.364,1.364,0,1,1,0-2.727h6.314a1.364,1.364,0,0,1,0,2.727Zm3.15,59.791c1.368-2.171,2.653-3.983,3.839-5.655,2.878-4.06,5.2-7.338,6.691-12.616.011-.031.021-.064.03-.1l4.938-18.427a4.234,4.234,0,0,0-.429-3.217l0,0a4.2,4.2,0,0,0-5.764-1.552v0A4.324,4.324,0,0,0,85.4,44.163L82.468,54.328a4.258,4.258,0,0,0-4.713-.268l-13.836,8.2c-4.4,2.608-7.07,10.261-6.746,15.383a5.108,5.108,0,0,0-1.924.648l0,0a5.063,5.063,0,0,0-2.37,3.076l-.69,2.575a5.1,5.1,0,0,0,3.593,6.22L73.1,94.8a5.1,5.1,0,0,0,6.311-3.643l.672-2.5a5.1,5.1,0,0,0-1.992-5.471ZM58.4,80.4l17.351,4.649a2.363,2.363,0,0,1,1.7,2.895l-.691,2.576a2.363,2.363,0,0,1-2.885,1.664L56.487,87.528a2.363,2.363,0,0,1-1.664-2.885l.69-2.576a2.347,2.347,0,0,1,1.1-1.43l0,0A2.343,2.343,0,0,1,58.4,80.4ZM84.041,58.675a4.234,4.234,0,0,1-1.967,2.684L70.5,68.214a1.361,1.361,0,1,1-1.384-2.344l11.573-6.855a1.518,1.518,0,1,0-1.55-2.611L65.3,64.6c-3.568,2.113-5.89,9.263-5.368,13.4l15.572,4.172c1.489-2.391,2.9-4.387,4.2-6.221,2.638-3.721,5.052-7.143,6.306-11.839L90.955,45.68a1.506,1.506,0,0,0-.152-1.149l0,0a1.5,1.5,0,0,0-2.052-.558v0a1.6,1.6,0,0,0-.739.951L84.041,58.675ZM24.188,85.069,41.6,80.4a2.343,2.343,0,0,1,1.785.237l0,0a2.347,2.347,0,0,1,1.1,1.43l.69,2.576a2.363,2.363,0,0,1-1.664,2.885L26.126,92.187a2.362,2.362,0,0,1-2.885-1.664l-.691-2.576a2.363,2.363,0,0,1,1.638-2.878Zm18.639-7.431a5.108,5.108,0,0,1,1.924.648l0,0a5.063,5.063,0,0,1,2.37,3.076l.69,2.575a5.1,5.1,0,0,1-3.593,6.22L26.9,94.8a5.1,5.1,0,0,1-6.311-3.643l-.672-2.5a5.1,5.1,0,0,1,1.992-5.471c-1.368-2.171-2.653-3.983-3.839-5.655-2.878-4.06-5.2-7.338-6.691-12.616-.011-.031-.021-.064-.03-.1L6.413,46.384a4.234,4.234,0,0,1,.429-3.217l0,0a4.2,4.2,0,0,1,5.764-1.552v0A4.324,4.324,0,0,1,14.6,44.163l2.936,10.165a4.258,4.258,0,0,1,4.713-.268l13.836,8.2C40.484,64.863,43.151,72.516,42.827,77.638Z"/><text x="0" y="115" fill="#000000" font-size="5px" font-weight="bold" font-family="'Helvetica Neue', Helvetica, Arial-Unicode, Arial, Sans-serif">Created by Zharifa Farasya</text><text x="0" y="120" fill="#000000" font-size="5px" font-weight="bold" font-family="'Helvetica Neue', Helvetica, Arial-Unicode, Arial, Sans-serif">from the Noun Project</text></svg>