<svg xmlns="http://www.w3.org/2000/svg" data-name="Layer 1" viewBox="0 0 128 160" x="0px" y="0px"><title>miscellaneous 216_expandline</title><path d="M7.43358,43.769a2.0021,2.0021,0,1,0-3.7734-1.3398q-.17145.4863-.337.9761a2.00131,2.00131,0,1,0,3.793,1.2783Q7.27008,44.225,7.43358,43.769Z"/><path d="M2.14358,58.708a2.01433,2.01433,0,0,0-2.0967,1.8999c-.0186.3423-.0332.6856-.04589,1.0293A2.00318,2.00318,0,0,0,1.93158,63.708,1.95008,1.95008,0,0,0,4.002,61.7773c.01658-.3232.02528-.6469.041-.9692A2.0017,2.0017,0,0,0,2.14358,58.708Z"/><path d="M3.541,49.8115a1.99906,1.99906,0,0,0-2.35061,1.5757q-.10108.5061-.1933,1.0137a2.00142,2.00142,0,1,0,3.9384.7153c.0567-.3188.1182-.6362.1807-.9521A2.00247,2.00247,0,0,0,3.541,49.8115Z"/><path d="M8.77638,35.5591a2.02005,2.02005,0,0,0,2.72262-.7759,60.30411,60.30411,0,0,1,9.88968-13.1543,2.00134,2.00134,0,1,0-2.8408-2.8198A64.31751,64.31751,0,0,0,8,32.8359,2.00418,2.00418,0,0,0,8.77638,35.5591Z"/><path d="M125.39058,54.7285a2.00178,2.00178,0,0,0,1.6123-2.3276q-.09225-.5076-.1924-1.0137a2.00141,2.00141,0,1,0-3.9267.7769c.0625.3159.124.6333.1807.9521A2.02768,2.02768,0,0,0,125.39058,54.7285Z"/><path d="M124.67678,43.4053q-.1656-.4908-.337-.9761a2.0021,2.0021,0,1,0-3.7734,1.3398c.1084.3038.2149.6089.3174.9146a2.02586,2.02586,0,0,0,2.5351,1.2583A2.00105,2.00105,0,0,0,124.67678,43.4053Z"/><path d="M127.95308,60.6079a2.00055,2.00055,0,1,0-3.99608.2002c.01568.3223.02638.646.041.9692a1.857,1.857,0,0,0,2.07038,1.9307,2.00323,2.00323,0,0,0,1.93062-2.0708C127.98628,61.2935,127.97168,60.9502,127.95308,60.6079Z"/><path d="M109.45208,18.8091a2.00134,2.00134,0,1,0-2.8408,2.8198A60.30425,60.30425,0,0,1,116.501,34.7832,2.00218,2.00218,0,0,0,120,32.8359,64.31871,64.31871,0,0,0,109.45208,18.8091Z"/><path d="M26.08108,16.8154a2.57446,2.57446,0,0,0,1.6074-.7055,2.00186,2.00186,0,1,0-2.4239-3.1866l-.4101.3145a1.996,1.996,0,0,0,1.2266,3.5776Z"/><path d="M58.94528,4.07959c.05372,0,.8076-.05615,1.1328-.07715a2.00214,2.00214,0,0,0-.2558-3.99609c-.3467.02246-.6914.04736-1.0371.07568a2.00213,2.00213,0,0,0,.1601,3.99756Z"/><path d="M49.99608,5.46338a6.59364,6.59364,0,0,0,1.4033-.26123,2.00185,2.00185,0,0,0-.8379-3.915q-.5082.10841-1.0136.2251a2.00361,2.00361,0,0,0-1.501,2.40088A2.03619,2.03619,0,0,0,49.99608,5.46338Z"/><path d="M84.98048,7.6416c.3037.11426.6084.23047.9111.34863a2.00183,2.00183,0,1,0,1.4561-3.72949c-.3233-.12646-.6456-.25049-.97068-.37109a2.00171,2.00171,0,1,0-1.39652,3.752Z"/><path d="M67.876,3.99854c.32708.021,1.084.07568,1.13668.07568A2.0019,2.0019,0,0,0,69.168.07666q-.51723-.041-1.03522-.07422a2.00217,2.00217,0,0,0-.25678,3.9961Z"/><path d="M76.56448,5.19189q.47895.10109.9521.21094A2.00235,2.00235,0,0,0,78.41408,1.5q-.50685-.11646-1.0186-.22461a2.00185,2.00185,0,0,0-.831,3.9165Z"/><path d="M92.94528,11.2993q.42915.23655.8555.48a2.00163,2.00163,0,0,0,1.9814-3.47852q-.4497-.25708-.9033-.50781a2.00207,2.00207,0,0,0-1.9336,3.50633Z"/><path d="M33.18648,12.061a3.87023,3.87023,0,0,0,1.8408-.7368,2.00159,2.00159,0,1,0-1.9316-3.50633c-.30468.16748-.6064.33838-.9072.51026a1.998,1.998,0,0,0,.998,3.73287Z"/><path d="M41.35058,8.14258a4.73846,4.73846,0,0,0,1.6377-.48194,2.00188,2.00188,0,0,0-1.3975-3.75195c-.3271.12158-.6504.2461-.9746.37305a2.00249,2.00249,0,0,0-1.1289,2.59619A2.0304,2.0304,0,0,0,41.35058,8.14258Z"/><path d="M100.31148,16.0962l.3828.2944a2.002,2.002,0,0,0,2.4512-3.166l-.4101-.3144a2.00162,2.00162,0,1,0-2.4239,3.186Z"/><path d="M95.46678,83.7104a2.00227,2.00227,0,0,0,.0176,4.0035l.05862.0005c2.29778,0,4.46378-2.3663,5.73138-4.5962,1.3867-2.4444,2.2705-5.7051.586-7.5259a2.00192,2.00192,0,0,0-3.0889,2.5361,7.923,7.923,0,0,1-3.3047,5.582Z"/><path d="M64.001,11.8843a51.0283,51.0283,0,0,0-42.14062,79.81l2.9287-2.3169c.0693-.0546.1504-.104.2216-.1567a46.76641,46.76641,0,0,1-7.6259-32.4277c1.7177.1152,5.86722.6372,6.0468,2.9961a36.50762,36.50762,0,0,0,.0899,6.9482c.39452,3.4614,2.8242,5.544,4.9678,7.3823,1.8212,1.5616,3.3935,2.9102,3.5351,4.8086a8.43324,8.43324,0,0,1-.749,3.2852,18.91344,18.91344,0,0,0-.7949,2.5766s-.334,1.5796-.4151,2.3413a10.73906,10.73906,0,0,1,1.8301-.1679h2.2373c.0635-.3731.2637-1.3457.2637-1.3457a15.90011,15.90011,0,0,1,.6416-2.041,11.69868,11.69868,0,0,0,.9775-4.9468c-.26458-3.5571-2.7392-5.6787-4.9218-7.5508-1.8125-1.5547-3.379-2.8965-3.59478-4.7959a32.58756,32.58756,0,0,1-.06832-6.3032,1.92288,1.92288,0,0,0,.0058-.2251c-.123-3.9195-3.5976-6.4639-9.3594-6.9287a46.57007,46.57007,0,0,1,2.0704-6.854,4.24908,4.24908,0,0,0,1.9648.5713c.05472.0019.1104.0029.1641.0029,2.7822,0,5.3047-2.562,7.2011-4.811a13.51006,13.51006,0,0,1,5.1358-3.3506c.3408-.1563.6816-.313,1.0254-.4746a9.59977,9.59977,0,0,0,5.3994-5.3448,11.46415,11.46415,0,0,0,.1445-5.7964c-.043-.249-.082-.5688-.1269-.9282a20.07929,20.07929,0,0,0-.6836-3.5561,46.65212,46.65212,0,0,1,17.5166-5.9854c.02732.377.0215,1.2915.0215,1.2915.0087,1.4009-.0264,2.3526-.5791,2.8091a7.10432,7.10432,0,0,1-1.9239.9399c-.4365.1651-.8701.3321-1.2851.5225a18.57168,18.57168,0,0,0-5.66308,3.584c-1.39162,1.4238-1.78522,2.8511-1.168,4.2417a2.00175,2.00175,0,0,0,3.79588-1.187c.0527-.062.127-.1455.2334-.2549a15.2666,15.2666,0,0,1,4.4658-2.7432c.33792-.1538.6895-.2856,1.043-.4204a10.23384,10.23384,0,0,0,3.0488-1.5952c2.0616-1.6973,2.045-4.2397,2.0342-5.9194,0,0,.00492-1.1065-.041-1.6245.706-.0318,1.415-.0547,2.12992-.0547a46.85312,46.85312,0,0,1,12.57128,1.7212,11.561,11.561,0,0,0-.0791,5.7451s.2685,3.3511.17182,3.4995c0,0-10.60252-.7905-11.30562,4.9209-.0127.1001-.0283.2065-.0342.3188a5.04636,5.04636,0,0,1-.7383,2.8697,5.97314,5.97314,0,0,1-.75388.4257,5.38429,5.38429,0,0,0-2.27342,1.7774c-.4629.7388-1.8692,2.9844-.7227,4.9707,1.3194,2.2861,4.62212,2.165,8.8067,2.0112,3.77142-.1391,8.4687-.311,10.2558,1.541a2.96192,2.96192,0,0,1,.7315,1.4371c.1513.6933.3427,1.5727-.3184,2.0703a4.30531,4.30531,0,0,1-2.6934.3437,38.80218,38.80218,0,0,1-6.5312-.5835c-3.9736-1.1958-8.918-2.6846-14.0674-1.3799a14.59832,14.59832,0,0,0-10.6807,12.3106c-.5654,5.7324,1.3887,9.6728,5.8067,11.7109l.4619.2134c2.1963,1.0215,4.26662,1.9844,7.05862,1.7651a2.15975,2.15975,0,0,0,.22358-.0302c.9112-.1758,3.8086-.3946,5.1426.8256.252.231,1.0176.9307.79882,3.1329a6.39681,6.39681,0,0,0,.96488,3.7338,7.41907,7.41907,0,0,1,.4736,1.0254,13.07964,13.07964,0,0,1,.4199,3.5196,20.38256,20.38256,0,0,0,.3477,3.6499c.0127.0581.0293.1128.043.1704h4.1435c-.0947-.3335-.1963-.6563-.2744-1.0161a17.19882,17.19882,0,0,1-.2607-2.9385,16.156,16.156,0,0,0-.6153-4.6348,10.87076,10.87076,0,0,0-.7246-1.6211,3.11812,3.11812,0,0,1-.5361-1.4922c.3476-3.4819-.9473-5.4555-2.0938-6.4985-2.8916-2.6284-7.4892-1.9834-8.4658-1.8115-1.6934.1064-3.0684-.5322-4.96088-1.4107l-.46982-.2192c-2.8544-1.3164-3.9013-3.6133-3.5-7.6797a10.62113,10.62113,0,0,1,7.6797-8.8232c3.7774-.9575,7.4815-.0074,11.9287,1.332a40.92466,40.92466,0,0,0,7.4913.749c2.0292.0996,4.2158-.1211,5.788-1.5468,1.9629-1.7813,1.9034-5.0845.8008-7.3101a7.281,7.281,0,0,0-1.2324-1.7744c-3.02728-3.1387-8.4766-2.938-13.28128-2.7617-.874.0322-1.78122.0664-2.66892.0673a8.98644,8.98644,0,0,1-2.291-.1494,1.88262,1.88262,0,0,1,1.1201-1.1118,6.13322,6.13322,0,0,0,1.9033-1.3149c1.5156-1.7266,1.6983-4.3228,1.7647-5.3638.0771-.6113,1.13082-.8672,1.582-.9912a14.0409,14.0409,0,0,1,3.4902-.4463c.7705-.0137,1.5411.0913,2.31162.0459a4.04108,4.04108,0,0,0,3.038-1.4941c1.49128-1.8658,1.03128-4.6519.75588-6.3194l-.0654-.3882c-.3281-1.9296-.4248-3.1665-.02348-3.83a47.2616,47.2616,0,0,1,28.42878,29.9096c-.545.1426-1.0655.3013-1.55178.4566a7.73756,7.73756,0,0,1-4.23732.539,5.85893,5.85893,0,0,1-1.6553-.8803,7.54646,7.54646,0,0,0-3.7265-1.5269,5.16475,5.16475,0,0,0-5.3291,6.2979,7.40148,7.40148,0,0,0,.78322,1.8413c.09268.1718.22068.4082.31728.6162-.15428-.001-.374-.0098-.6679-.0381a5.8409,5.8409,0,0,1-1.1729-.3296,6.29271,6.29271,0,0,0-3.68648-.4316,4.51571,4.51571,0,0,0-3.10062,2.5083,5.907,5.907,0,0,0,.1885,4.9985A8.23893,8.23893,0,0,0,89.918,66.9438a9.91039,9.91039,0,0,1,2.08978,1.0533c.03522.0268.0674.0508.0918.0708A8.79622,8.79622,0,0,1,91.085,69.481c-.29892.3628-.58212.7124-.80672,1.0376-.4385.6386-.9316,1.2612-1.4531,1.9209a18.93047,18.93047,0,0,0-3.2676,5.2426,19.31478,19.31478,0,0,0-.9277,5.208,20.79751,20.79751,0,0,1-.461,3.3936,7.50727,7.50727,0,0,1-1.6513,2.7226,19.51824,19.51824,0,0,1-2.9903,2.8492,9.58745,9.58745,0,0,1,1.9405,2.0698h1.8144A20.65282,20.65282,0,0,0,85.623,91.5327a11.10787,11.10787,0,0,0,2.42578-4.2637,24.10967,24.10967,0,0,0,.5703-4.0507,16.07191,16.07191,0,0,1,.6983-4.1626,15.70176,15.70176,0,0,1,2.6465-4.1309c.539-.6821,1.0966-1.3872,1.6123-2.1357.166-.2412.3799-.4976.6006-.7676.9218-1.1226,2.1826-2.6592,1.9375-4.5318a4.00039,4.00039,0,0,0-1.7725-2.7451,13.449,13.449,0,0,0-2.9082-1.5068c-1.3643-.5581-2.1875-.895-2.84858-2.2173-.20412-.4092-.42292-1.1333-.127-1.5449.42578-.5913,1.294-.1426,1.834.0449a8.87353,8.87353,0,0,0,2.10548.5327c.8886.084,2.9697.2842,4.3017-1.2422,1.711-1.9658.5196-4.1689-.0527-5.228-.458-.8476-.6074-2.3398.81152-2.2353a4.61938,4.61938,0,0,1,1.74318.8754,8.88237,8.88237,0,0,0,3.0166,1.4498,11.45827,11.45827,0,0,0,6.289-.6392c.4668-.1489.92-.2915,1.37022-.4072a46.877,46.877,0,0,1-5.48152,34.3701,7.387,7.387,0,0,1,3.8428,1.3442A51.02,51.02,0,0,0,64.001,11.8843ZM37.25778,31.251c-.42578,1.2304-1.4209,2.1382-3.3262,3.0371-.331.1567-.6611.3076-.9863.457A17.03809,17.03809,0,0,0,26.418,39.1543c-2.69242,3.1938-3.89852,3.4214-4.16022,3.3877-.042-.0015-.17278-.0064-.417-.3423-.00778-.0102-.0176-.0185-.0254-.0293a47.33919,47.33919,0,0,1,15.0098-17.5952c.1172.6543.3613,2.5708.4111,2.8643A8.02438,8.02438,0,0,1,37.25778,31.251Z"/><circle cx="17.97168" cy="108.98682" r="2.00147"/><path d="M103.84468,90.9678h-8.7822a7.17082,7.17082,0,0,0-2.4512.4853c-.77828.2964-6.5664,6.4761-6.5664,6.4761h-7.1347a5.77515,5.77515,0,0,0-5.8243-4.3193H61.80658a12.28244,12.28244,0,0,1-3.1425-.5078l-4.21-1.4166a16.01283,16.01283,0,0,0-4.415-.7177H31.89548a8.29232,8.29232,0,0,0-4.624,1.5503l-6.2539,4.9477c-2.0332-1.75-4.8692-2.0063-6.6475-.5366l-6.623,5.0889a2.00185,2.00185,0,0,0,2.4375,3.1762l6.6777-5.1323a1.61773,1.61773,0,0,1,1.708.5601l20.0068,21.0522a1.49626,1.49626,0,0,1-.0576,2.1045l-.7998.8687a2.00157,2.00157,0,0,0,2.9424,2.7143l.751-.8183a5.50741,5.50741,0,0,0,1.1611-5.9234l.2149-.1802h33.1123a9.47246,9.47246,0,0,0,4.5332-.8173l17.6572-10.0777a9.0072,9.0072,0,0,0,3.1807-3.25L106.623,95.3794a3.003,3.003,0,0,0,.00688-2.9985A3.131,3.131,0,0,0,103.84468,90.9678Zm-6.1435,13.5176a5.117,5.117,0,0,1-1.5918,1.581L78.45018,116.146a6.13412,6.13412,0,0,1-2.5488.29h-33.834a2.00233,2.00233,0,0,0-1.2803.4619l-.6855.5699-16.2715-17.1216L29.75,95.6626a4.46312,4.46312,0,0,1,2.14548-.6909h18.1436a12.16822,12.16822,0,0,1,3.1377.5083l4.2119,1.416a16.04739,16.04739,0,0,0,4.4179.7178h11.2793c1.1329,0,1.9209.6567,1.9209,1.2466v4.8754c0,.5899-.788,1.2471-1.9209,1.2471H50.53128a2.002,2.002,0,0,0,0,4.0039h22.5546c3.2666,0,5.9229-2.3555,5.9229-5.251v-1.8022h7.9629a2.00266,2.00266,0,0,0,1.5254-.707s5.497-6.0078,5.5322-6.0288a3.20375,3.20375,0,0,1,1.0332-.2261l7.3018.001Z"/><text x="0" y="143" fill="#000000" font-size="5px" font-weight="bold" font-family="'Helvetica Neue', Helvetica, Arial-Unicode, Arial, Sans-serif">Created by WEBTECHOPS LLP</text><text x="0" y="148" fill="#000000" font-size="5px" font-weight="bold" font-family="'Helvetica Neue', Helvetica, Arial-Unicode, Arial, Sans-serif">from the Noun Project</text></svg>